<svg width="442" height="772" viewBox="0 0 442 772" fill="none" xmlns="http://www.w3.org/2000/svg">
<rect x="0.940186" y="74.0127" width="440.12" height="697.987" rx="38" fill="#D9D9D9"/>
<path d="M151.866 59.8652C151.768 60.0605 151.622 60.3535 151.427 60.7441C151.231 61.0371 150.792 61.5254 150.108 62.209C148.448 63.0879 147.032 63.8203 145.86 64.4062C144.688 64.9922 143.663 65.5293 142.784 66.0176C141.124 66.9941 138.975 68.2637 136.339 69.8262C133.8 71.3887 131.309 73.1465 128.868 75.0996C126.427 76.9551 124.327 79.0059 122.569 81.252C120.811 83.498 119.932 85.7441 119.932 87.9902C119.932 88.2832 119.981 88.6738 120.079 89.1621C120.177 89.5527 120.47 89.748 120.958 89.748C122.716 89.4551 124.522 89.3086 126.378 89.3086C128.526 89.3086 130.626 89.4551 132.677 89.748C133.165 89.8457 133.8 90.0898 134.581 90.4805C135.46 90.8711 136.29 91.3594 137.071 91.9453C137.95 92.4336 138.731 93.0195 139.415 93.7031C140.196 94.2891 140.831 94.8262 141.319 95.3145C143.468 97.8535 144.542 100.93 144.542 104.543C144.542 109.133 143.126 112.844 140.294 115.676C137.559 118.508 133.849 119.924 129.161 119.924C125.743 119.924 122.667 119.24 119.932 117.873C117.296 116.408 115.001 114.553 113.048 112.307C111.095 109.963 109.581 107.277 108.507 104.25C107.53 101.223 107.042 98.0977 107.042 94.875C107.042 89.0156 108.263 83.791 110.704 79.2012C113.145 74.6113 116.563 70.8027 120.958 67.7754C122.52 66.7012 124.181 65.627 125.938 64.5527C127.696 63.3809 129.698 62.3066 131.944 61.3301C134.776 60.2559 137.364 59.4258 139.708 58.8398C142.052 58.1562 144.347 57.8145 146.593 57.8145C147.374 57.8145 148.106 57.9121 148.79 58.1074C149.474 58.2051 150.499 58.791 151.866 59.8652ZM99.4247 59.8652C99.327 60.0605 99.1805 60.3535 98.9852 60.7441C98.7899 61.0371 98.3505 61.5254 97.6669 62.209C96.0067 63.0879 94.5907 63.8203 93.4188 64.4062C92.2469 64.9922 91.2216 65.5293 90.3427 66.0176C88.6825 66.9941 86.5341 68.2637 83.8973 69.8262C81.3583 71.3887 78.868 73.1465 76.4266 75.0996C73.9852 76.9551 71.8856 79.0059 70.1278 81.252C68.37 83.498 67.4911 85.7441 67.4911 87.9902C67.4911 88.2832 67.5399 88.6738 67.6376 89.1621C67.7352 89.5527 68.0282 89.748 68.5165 89.748C70.2743 89.4551 72.0809 89.3086 73.9364 89.3086C76.0848 89.3086 78.1844 89.4551 80.2352 89.748C80.7235 89.8457 81.3583 90.0898 82.1395 90.4805C83.0184 90.8711 83.8485 91.3594 84.6298 91.9453C85.5087 92.4336 86.2899 93.0195 86.9735 93.7031C87.7548 94.2891 88.3895 94.8262 88.8778 95.3145C91.0262 97.8535 92.1005 100.93 92.1005 104.543C92.1005 109.133 90.6844 112.844 87.8524 115.676C85.118 118.508 81.4071 119.924 76.7196 119.924C73.3016 119.924 70.2255 119.24 67.4911 117.873C64.8544 116.408 62.5594 114.553 60.6063 112.307C58.6532 109.963 57.1395 107.277 56.0653 104.25C55.0887 101.223 54.6005 98.0977 54.6005 94.875C54.6005 89.0156 55.8212 83.791 58.2626 79.2012C60.704 74.6113 64.1219 70.8027 68.5165 67.7754C70.079 66.7012 71.7391 65.627 73.4969 64.5527C75.2548 63.3809 77.2567 62.3066 79.5028 61.3301C82.3348 60.2559 84.9227 59.4258 87.2665 58.8398C89.6102 58.1562 91.9052 57.8145 94.1512 57.8145C94.9325 57.8145 95.6649 57.9121 96.3485 58.1074C97.0321 58.2051 98.0575 58.791 99.4247 59.8652Z" fill="black"/>
</svg>
