<svg width="372" height="680" viewBox="0 0 372 680" fill="none" xmlns="http://www.w3.org/2000/svg">
<rect y="81" width="372" height="599" rx="38" fill="#D9D9D9"/>
<path d="M156.055 59.8652C155.957 60.0605 155.811 60.3535 155.615 60.7441C155.42 61.0371 154.98 61.5254 154.297 62.209C152.637 63.0879 151.221 63.8203 150.049 64.4062C148.877 64.9922 147.852 65.5293 146.973 66.0176C145.312 66.9941 143.164 68.2637 140.527 69.8262C137.988 71.3887 135.498 73.1465 133.057 75.0996C130.615 76.9551 128.516 79.0059 126.758 81.252C125 83.498 124.121 85.7441 124.121 87.9902C124.121 88.2832 124.17 88.6738 124.268 89.1621C124.365 89.5527 124.658 89.748 125.146 89.748C126.904 89.4551 128.711 89.3086 130.566 89.3086C132.715 89.3086 134.814 89.4551 136.865 89.748C137.354 89.8457 137.988 90.0898 138.77 90.4805C139.648 90.8711 140.479 91.3594 141.26 91.9453C142.139 92.4336 142.92 93.0195 143.604 93.7031C144.385 94.2891 145.02 94.8262 145.508 95.3145C147.656 97.8535 148.73 100.93 148.73 104.543C148.73 109.133 147.314 112.844 144.482 115.676C141.748 118.508 138.037 119.924 133.35 119.924C129.932 119.924 126.855 119.24 124.121 117.873C121.484 116.408 119.189 114.553 117.236 112.307C115.283 109.963 113.77 107.277 112.695 104.25C111.719 101.223 111.23 98.0977 111.23 94.875C111.23 89.0156 112.451 83.791 114.893 79.2012C117.334 74.6113 120.752 70.8027 125.146 67.7754C126.709 66.7012 128.369 65.627 130.127 64.5527C131.885 63.3809 133.887 62.3066 136.133 61.3301C138.965 60.2559 141.553 59.4258 143.896 58.8398C146.24 58.1562 148.535 57.8145 150.781 57.8145C151.562 57.8145 152.295 57.9121 152.979 58.1074C153.662 58.2051 154.688 58.791 156.055 59.8652ZM103.613 59.8652C103.516 60.0605 103.369 60.3535 103.174 60.7441C102.979 61.0371 102.539 61.5254 101.855 62.209C100.195 63.0879 98.7793 63.8203 97.6074 64.4062C96.4355 64.9922 95.4102 65.5293 94.5312 66.0176C92.8711 66.9941 90.7227 68.2637 88.0859 69.8262C85.5469 71.3887 83.0566 73.1465 80.6152 75.0996C78.1738 76.9551 76.0742 79.0059 74.3164 81.252C72.5586 83.498 71.6797 85.7441 71.6797 87.9902C71.6797 88.2832 71.7285 88.6738 71.8262 89.1621C71.9238 89.5527 72.2168 89.748 72.7051 89.748C74.4629 89.4551 76.2695 89.3086 78.125 89.3086C80.2734 89.3086 82.373 89.4551 84.4238 89.748C84.9121 89.8457 85.5469 90.0898 86.3281 90.4805C87.207 90.8711 88.0371 91.3594 88.8184 91.9453C89.6973 92.4336 90.4785 93.0195 91.1621 93.7031C91.9434 94.2891 92.5781 94.8262 93.0664 95.3145C95.2148 97.8535 96.2891 100.93 96.2891 104.543C96.2891 109.133 94.873 112.844 92.041 115.676C89.3066 118.508 85.5957 119.924 80.9082 119.924C77.4902 119.924 74.4141 119.24 71.6797 117.873C69.043 116.408 66.748 114.553 64.7949 112.307C62.8418 109.963 61.3281 107.277 60.2539 104.25C59.2773 101.223 58.7891 98.0977 58.7891 94.875C58.7891 89.0156 60.0098 83.791 62.4512 79.2012C64.8926 74.6113 68.3105 70.8027 72.7051 67.7754C74.2676 66.7012 75.9277 65.627 77.6855 64.5527C79.4434 63.3809 81.4453 62.3066 83.6914 61.3301C86.5234 60.2559 89.1113 59.4258 91.4551 58.8398C93.7988 58.1562 96.0938 57.8145 98.3398 57.8145C99.1211 57.8145 99.8535 57.9121 100.537 58.1074C101.221 58.2051 102.246 58.791 103.613 59.8652Z" fill="black"/>
</svg>
