<svg width="1560" height="625" viewBox="0 0 1560 625" fill="none" xmlns="http://www.w3.org/2000/svg">
<rect y="48" width="1560" height="577" rx="10" fill="#D9D9D9"/>
<path d="M98.4211 46.2031L98.2258 46.7891C98.0956 47.1797 97.9329 47.375 97.7375 47.375C97.6073 47.5703 97.3795 47.8307 97.054 48.1562C96.7935 48.4167 96.5006 48.7422 96.175 49.1328C95.8495 49.4583 95.5566 49.7513 95.2961 50.0117C95.0357 50.2721 94.873 50.4349 94.8079 50.5C94.6777 50.5651 94.4172 50.6953 94.0266 50.8906C93.7011 51.0208 93.343 51.1836 92.9524 51.3789C92.5618 51.5742 92.1711 51.7695 91.7805 51.9648C91.455 52.1602 91.2597 52.2904 91.1946 52.3555C91.0644 52.3555 90.8691 52.4857 90.6086 52.7461C90.4133 52.9414 90.1855 53.2018 89.925 53.5273C89.6646 53.7878 89.4042 54.0482 89.1438 54.3086C88.8834 54.569 88.7206 54.7318 88.6555 54.7969C87.7441 55.513 86.7349 56.1966 85.6282 56.8477C84.5214 57.4336 83.4146 58.0521 82.3079 58.7031C81.2662 59.3542 80.2571 60.0703 79.2805 60.8516C78.304 61.6328 77.4576 62.6094 76.7415 63.7812C76.6112 63.9115 76.4159 64.1719 76.1555 64.5625C75.9602 64.9531 75.7323 65.4089 75.4719 65.9297C75.2115 66.4505 74.9511 66.9714 74.6907 67.4922C74.4954 67.9479 74.3652 68.306 74.3 68.5664C74.1698 68.6315 74.0722 68.7617 74.0071 68.957C73.942 69.1523 73.8769 69.3477 73.8118 69.543L73.6165 70.3242C73.4862 70.4544 73.1282 70.7799 72.5422 71.3008C72.0214 71.7565 71.761 72.0495 71.761 72.1797C71.6959 72.3099 71.6633 72.5378 71.6633 72.8633C71.6633 73.1237 71.6633 73.319 71.6633 73.4492C71.6633 74.556 71.9237 75.6953 72.4446 76.8672C72.9654 77.974 73.7467 78.8854 74.7883 79.6016C75.5045 79.4714 76.2206 79.3737 76.9368 79.3086C77.718 79.2435 78.4667 79.2109 79.1829 79.2109C81.0058 79.2109 82.6334 79.569 84.0657 80.2852C85.5631 80.9362 86.6698 82.3359 87.386 84.4844C87.4511 84.5495 87.5487 84.875 87.679 85.4609C87.8743 85.9818 88.0696 86.6003 88.2649 87.3164C88.4602 88.0326 88.623 88.7812 88.7532 89.5625C88.9485 90.2786 89.0787 90.832 89.1438 91.2227V91.3203V91.7109C88.1672 95.4219 86.6373 97.9935 84.554 99.4258C82.5357 100.858 79.7037 101.574 76.0579 101.574C71.3053 101.574 67.5943 100.337 64.925 97.8633C62.2558 95.3242 60.0748 91.8411 58.3821 87.4141C58.3821 87.349 58.317 87.1211 58.1868 86.7305C58.1217 86.3398 57.9915 85.8841 57.7961 85.3633C57.6659 84.8424 57.5032 84.3216 57.3079 83.8008C57.1777 83.2799 57.08 82.8568 57.0149 82.5312V82.3359C57.0149 79.4714 57.5032 76.5417 58.4797 73.5469C59.4563 70.5521 60.7258 67.6875 62.2883 64.9531C63.9159 62.1536 65.7714 59.582 67.8547 57.2383C69.9381 54.8294 72.0865 52.7461 74.3 50.9883C75.3417 50.0117 76.5136 49.263 77.8157 48.7422C79.1829 48.2214 80.3547 47.375 81.3313 46.2031C83.4146 45.8776 85.5305 45.3893 87.679 44.7383C89.8925 44.0872 92.0409 43.7617 94.1243 43.7617C94.9706 43.7617 95.817 43.9896 96.6633 44.4453C97.5097 44.8359 98.0956 45.4219 98.4211 46.2031ZM135.921 46.2031L135.726 46.7891C135.596 47.1797 135.465 47.375 135.335 47.375C135.205 47.5703 134.977 47.8307 134.652 48.1562C134.391 48.4167 134.098 48.7422 133.773 49.1328C133.447 49.4583 133.122 49.7513 132.796 50.0117C132.536 50.2721 132.373 50.4349 132.308 50.5C132.178 50.5651 131.917 50.6953 131.527 50.8906C131.201 51.0208 130.843 51.1836 130.452 51.3789C130.062 51.5742 129.671 51.7695 129.281 51.9648C128.955 52.1602 128.76 52.2904 128.695 52.3555C128.629 52.3555 128.467 52.4857 128.206 52.7461C128.011 52.9414 127.751 53.2018 127.425 53.5273C127.165 53.7878 126.904 54.0482 126.644 54.3086C126.448 54.569 126.318 54.7318 126.253 54.7969C125.277 55.513 124.235 56.1966 123.128 56.8477C122.087 57.4336 121.012 58.0521 119.906 58.7031C118.864 59.3542 117.855 60.0703 116.878 60.8516C115.902 61.6328 115.023 62.6094 114.241 63.7812C114.176 63.9115 114.014 64.1719 113.753 64.5625C113.558 64.9531 113.33 65.4089 113.07 65.9297C112.809 66.4505 112.549 66.9714 112.288 67.4922C112.028 67.9479 111.865 68.306 111.8 68.5664C111.67 68.6315 111.572 68.7617 111.507 68.957C111.507 69.1523 111.475 69.3477 111.409 69.543L111.214 70.3242C111.084 70.4544 110.726 70.7799 110.14 71.3008C109.619 71.7565 109.359 72.0495 109.359 72.1797C109.228 72.3099 109.163 72.5378 109.163 72.8633C109.163 73.1237 109.163 73.319 109.163 73.4492C109.163 74.556 109.424 75.6953 109.945 76.8672C110.531 77.974 111.312 78.8854 112.288 79.6016C113.004 79.4714 113.753 79.3737 114.534 79.3086C115.316 79.2435 116.064 79.2109 116.781 79.2109C118.603 79.2109 120.231 79.569 121.663 80.2852C123.161 80.9362 124.267 82.3359 124.984 84.4844C124.984 84.5495 125.049 84.875 125.179 85.4609C125.374 85.9818 125.57 86.6003 125.765 87.3164C125.96 88.0326 126.156 88.7812 126.351 89.5625C126.546 90.2786 126.676 90.832 126.741 91.2227V91.3203V91.7109C125.765 95.4219 124.235 97.9935 122.152 99.4258C120.133 100.858 117.301 101.574 113.656 101.574C111.247 101.574 109.131 101.249 107.308 100.598C105.485 99.9466 103.857 99.0352 102.425 97.8633C101.058 96.6263 99.8209 95.1289 98.7141 93.3711C97.6724 91.6133 96.7284 89.6276 95.8821 87.4141C95.8821 87.349 95.817 87.1211 95.6868 86.7305C95.6217 86.3398 95.4915 85.8841 95.2961 85.3633C95.1659 84.8424 95.0357 84.3216 94.9055 83.8008C94.7753 83.2799 94.6777 82.8568 94.6125 82.5312V82.3359C94.6125 79.4714 95.1008 76.5417 96.0774 73.5469C97.054 70.5521 98.3235 67.6875 99.886 64.9531C101.514 62.1536 103.337 59.582 105.355 57.2383C107.438 54.8294 109.587 52.7461 111.8 50.9883C112.907 50.0117 114.111 49.263 115.413 48.7422C116.715 48.2214 117.887 47.375 118.929 46.2031C121.012 45.8776 123.128 45.3893 125.277 44.7383C127.49 44.0872 129.639 43.7617 131.722 43.7617C132.503 43.7617 133.317 43.9896 134.163 44.4453C135.01 44.8359 135.596 45.4219 135.921 46.2031Z" fill="black"/>
</svg>
