<svg width="430" height="625" viewBox="0 0 430 625" fill="none" xmlns="http://www.w3.org/2000/svg">
<rect y="48" width="430" height="577" rx="10" fill="#D9D9D9"/>
<path d="M60.9418 46.2031L60.7465 46.7891C60.6163 47.1797 60.4535 47.375 60.2582 47.375C60.128 47.5703 59.9001 47.8307 59.5746 48.1562C59.3142 48.4167 59.0212 48.7422 58.6957 49.1328C58.3702 49.4583 58.0772 49.7513 57.8168 50.0117C57.5564 50.2721 57.3936 50.4349 57.3285 50.5C57.1983 50.5651 56.9379 50.6953 56.5472 50.8906C56.2217 51.0208 55.8636 51.1836 55.473 51.3789C55.0824 51.5742 54.6918 51.7695 54.3011 51.9648C53.9756 52.1602 53.7803 52.2904 53.7152 52.3555C53.585 52.3555 53.3897 52.4857 53.1293 52.7461C52.934 52.9414 52.7061 53.2018 52.4457 53.5273C52.1853 53.7878 51.9248 54.0482 51.6644 54.3086C51.404 54.569 51.2413 54.7318 51.1761 54.7969C50.2647 55.513 49.2556 56.1966 48.1488 56.8477C47.042 57.4336 45.9353 58.0521 44.8285 58.7031C43.7868 59.3542 42.7777 60.0703 41.8011 60.8516C40.8246 61.6328 39.9782 62.6094 39.2621 63.7812C39.1319 63.9115 38.9366 64.1719 38.6761 64.5625C38.4808 64.9531 38.253 65.4089 37.9926 65.9297C37.7321 66.4505 37.4717 66.9714 37.2113 67.4922C37.016 67.9479 36.8858 68.306 36.8207 68.5664C36.6905 68.6315 36.5928 68.7617 36.5277 68.957C36.4626 69.1523 36.3975 69.3477 36.3324 69.543L36.1371 70.3242C36.0069 70.4544 35.6488 70.7799 35.0629 71.3008C34.542 71.7565 34.2816 72.0495 34.2816 72.1797C34.2165 72.3099 34.184 72.5378 34.184 72.8633C34.184 73.1237 34.184 73.319 34.184 73.4492C34.184 74.556 34.4444 75.6953 34.9652 76.8672C35.486 77.974 36.2673 78.8854 37.309 79.6016C38.0251 79.4714 38.7413 79.3737 39.4574 79.3086C40.2386 79.2435 40.9873 79.2109 41.7035 79.2109C43.5264 79.2109 45.154 79.569 46.5863 80.2852C48.0837 80.9362 49.1905 82.3359 49.9066 84.4844C49.9717 84.5495 50.0694 84.875 50.1996 85.4609C50.3949 85.9818 50.5902 86.6003 50.7855 87.3164C50.9808 88.0326 51.1436 88.7812 51.2738 89.5625C51.4691 90.2786 51.5993 90.832 51.6644 91.2227V91.3203V91.7109C50.6879 95.4219 49.1579 97.9935 47.0746 99.4258C45.0564 100.858 42.2243 101.574 38.5785 101.574C33.8259 101.574 30.1149 100.337 27.4457 97.8633C24.7764 95.3242 22.5954 91.8411 20.9027 87.4141C20.9027 87.349 20.8376 87.1211 20.7074 86.7305C20.6423 86.3398 20.5121 85.8841 20.3168 85.3633C20.1866 84.8424 20.0238 84.3216 19.8285 83.8008C19.6983 83.2799 19.6006 82.8568 19.5355 82.5312V82.3359C19.5355 79.4714 20.0238 76.5417 21.0004 73.5469C21.9769 70.5521 23.2465 67.6875 24.809 64.9531C26.4366 62.1536 28.292 59.582 30.3754 57.2383C32.4587 54.8294 34.6071 52.7461 36.8207 50.9883C37.8623 50.0117 39.0342 49.263 40.3363 48.7422C41.7035 48.2214 42.8754 47.375 43.8519 46.2031C45.9353 45.8776 48.0511 45.3893 50.1996 44.7383C52.4131 44.0872 54.5616 43.7617 56.6449 43.7617C57.4913 43.7617 58.3376 43.9896 59.184 44.4453C60.0303 44.8359 60.6163 45.4219 60.9418 46.2031ZM98.4418 46.2031L98.2465 46.7891C98.1163 47.1797 97.986 47.375 97.8558 47.375C97.7256 47.5703 97.4978 47.8307 97.1722 48.1562C96.9118 48.4167 96.6189 48.7422 96.2933 49.1328C95.9678 49.4583 95.6423 49.7513 95.3168 50.0117C95.0564 50.2721 94.8936 50.4349 94.8285 50.5C94.6983 50.5651 94.4379 50.6953 94.0472 50.8906C93.7217 51.0208 93.3636 51.1836 92.973 51.3789C92.5824 51.5742 92.1918 51.7695 91.8011 51.9648C91.4756 52.1602 91.2803 52.2904 91.2152 52.3555C91.1501 52.3555 90.9873 52.4857 90.7269 52.7461C90.5316 52.9414 90.2712 53.2018 89.9457 53.5273C89.6853 53.7878 89.4248 54.0482 89.1644 54.3086C88.9691 54.569 88.8389 54.7318 88.7738 54.7969C87.7972 55.513 86.7556 56.1966 85.6488 56.8477C84.6071 57.4336 83.5329 58.0521 82.4261 58.7031C81.3845 59.3542 80.3754 60.0703 79.3988 60.8516C78.4222 61.6328 77.5433 62.6094 76.7621 63.7812C76.697 63.9115 76.5342 64.1719 76.2738 64.5625C76.0785 64.9531 75.8506 65.4089 75.5902 65.9297C75.3298 66.4505 75.0694 66.9714 74.809 67.4922C74.5485 67.9479 74.3858 68.306 74.3207 68.5664C74.1905 68.6315 74.0928 68.7617 74.0277 68.957C74.0277 69.1523 73.9952 69.3477 73.9301 69.543L73.7347 70.3242C73.6045 70.4544 73.2465 70.7799 72.6605 71.3008C72.1397 71.7565 71.8793 72.0495 71.8793 72.1797C71.7491 72.3099 71.684 72.5378 71.684 72.8633C71.684 73.1237 71.684 73.319 71.684 73.4492C71.684 74.556 71.9444 75.6953 72.4652 76.8672C73.0511 77.974 73.8324 78.8854 74.809 79.6016C75.5251 79.4714 76.2738 79.3737 77.0551 79.3086C77.8363 79.2435 78.585 79.2109 79.3011 79.2109C81.1241 79.2109 82.7517 79.569 84.184 80.2852C85.6814 80.9362 86.7881 82.3359 87.5043 84.4844C87.5043 84.5495 87.5694 84.875 87.6996 85.4609C87.8949 85.9818 88.0902 86.6003 88.2855 87.3164C88.4808 88.0326 88.6761 88.7812 88.8715 89.5625C89.0668 90.2786 89.197 90.832 89.2621 91.2227V91.3203V91.7109C88.2855 95.4219 86.7556 97.9935 84.6722 99.4258C82.654 100.858 79.822 101.574 76.1761 101.574C73.7673 101.574 71.6514 101.249 69.8285 100.598C68.0056 99.9466 66.378 99.0352 64.9457 97.8633C63.5785 96.6263 62.3415 95.1289 61.2347 93.3711C60.1931 91.6133 59.2491 89.6276 58.4027 87.4141C58.4027 87.349 58.3376 87.1211 58.2074 86.7305C58.1423 86.3398 58.0121 85.8841 57.8168 85.3633C57.6866 84.8424 57.5564 84.3216 57.4261 83.8008C57.2959 83.2799 57.1983 82.8568 57.1332 82.5312V82.3359C57.1332 79.4714 57.6215 76.5417 58.598 73.5469C59.5746 70.5521 60.8441 67.6875 62.4066 64.9531C64.0342 62.1536 65.8571 59.582 67.8754 57.2383C69.9587 54.8294 72.1071 52.7461 74.3207 50.9883C75.4274 50.0117 76.6319 49.263 77.934 48.7422C79.236 48.2214 80.4079 47.375 81.4496 46.2031C83.5329 45.8776 85.6488 45.3893 87.7972 44.7383C90.0108 44.0872 92.1592 43.7617 94.2426 43.7617C95.0238 43.7617 95.8376 43.9896 96.684 44.4453C97.5303 44.8359 98.1163 45.4219 98.4418 46.2031Z" fill="black"/>
</svg>
