<svg width="427" height="866" viewBox="0 0 427 866" fill="none" xmlns="http://www.w3.org/2000/svg">
<rect y="76" width="427" height="790" rx="38" fill="#D9D9D9"/>
<path d="M166.055 59.8652C165.957 60.0605 165.811 60.3535 165.615 60.7441C165.42 61.0371 164.98 61.5254 164.297 62.209C162.637 63.0879 161.221 63.8203 160.049 64.4062C158.877 64.9922 157.852 65.5293 156.973 66.0176C155.312 66.9941 153.164 68.2637 150.527 69.8262C147.988 71.3887 145.498 73.1465 143.057 75.0996C140.615 76.9551 138.516 79.0059 136.758 81.252C135 83.498 134.121 85.7441 134.121 87.9902C134.121 88.2832 134.17 88.6738 134.268 89.1621C134.365 89.5527 134.658 89.748 135.146 89.748C136.904 89.4551 138.711 89.3086 140.566 89.3086C142.715 89.3086 144.814 89.4551 146.865 89.748C147.354 89.8457 147.988 90.0898 148.77 90.4805C149.648 90.8711 150.479 91.3594 151.26 91.9453C152.139 92.4336 152.92 93.0195 153.604 93.7031C154.385 94.2891 155.02 94.8262 155.508 95.3145C157.656 97.8535 158.73 100.93 158.73 104.543C158.73 109.133 157.314 112.844 154.482 115.676C151.748 118.508 148.037 119.924 143.35 119.924C139.932 119.924 136.855 119.24 134.121 117.873C131.484 116.408 129.189 114.553 127.236 112.307C125.283 109.963 123.77 107.277 122.695 104.25C121.719 101.223 121.23 98.0977 121.23 94.875C121.23 89.0156 122.451 83.791 124.893 79.2012C127.334 74.6113 130.752 70.8027 135.146 67.7754C136.709 66.7012 138.369 65.627 140.127 64.5527C141.885 63.3809 143.887 62.3066 146.133 61.3301C148.965 60.2559 151.553 59.4258 153.896 58.8398C156.24 58.1562 158.535 57.8145 160.781 57.8145C161.562 57.8145 162.295 57.9121 162.979 58.1074C163.662 58.2051 164.688 58.791 166.055 59.8652ZM113.613 59.8652C113.516 60.0605 113.369 60.3535 113.174 60.7441C112.979 61.0371 112.539 61.5254 111.855 62.209C110.195 63.0879 108.779 63.8203 107.607 64.4062C106.436 64.9922 105.41 65.5293 104.531 66.0176C102.871 66.9941 100.723 68.2637 98.0859 69.8262C95.5469 71.3887 93.0566 73.1465 90.6152 75.0996C88.1738 76.9551 86.0742 79.0059 84.3164 81.252C82.5586 83.498 81.6797 85.7441 81.6797 87.9902C81.6797 88.2832 81.7285 88.6738 81.8262 89.1621C81.9238 89.5527 82.2168 89.748 82.7051 89.748C84.4629 89.4551 86.2695 89.3086 88.125 89.3086C90.2734 89.3086 92.373 89.4551 94.4238 89.748C94.9121 89.8457 95.5469 90.0898 96.3281 90.4805C97.207 90.8711 98.0371 91.3594 98.8184 91.9453C99.6973 92.4336 100.479 93.0195 101.162 93.7031C101.943 94.2891 102.578 94.8262 103.066 95.3145C105.215 97.8535 106.289 100.93 106.289 104.543C106.289 109.133 104.873 112.844 102.041 115.676C99.3066 118.508 95.5957 119.924 90.9082 119.924C87.4902 119.924 84.4141 119.24 81.6797 117.873C79.043 116.408 76.748 114.553 74.7949 112.307C72.8418 109.963 71.3281 107.277 70.2539 104.25C69.2773 101.223 68.7891 98.0977 68.7891 94.875C68.7891 89.0156 70.0098 83.791 72.4512 79.2012C74.8926 74.6113 78.3105 70.8027 82.7051 67.7754C84.2676 66.7012 85.9277 65.627 87.6855 64.5527C89.4434 63.3809 91.4453 62.3066 93.6914 61.3301C96.5234 60.2559 99.1113 59.4258 101.455 58.8398C103.799 58.1562 106.094 57.8145 108.34 57.8145C109.121 57.8145 109.854 57.9121 110.537 58.1074C111.221 58.2051 112.246 58.791 113.613 59.8652Z" fill="black"/>
</svg>
