<svg width="734" height="672" viewBox="0 0 734 672" fill="none" xmlns="http://www.w3.org/2000/svg">
<ellipse cx="372.5" cy="304" rx="329.5" ry="301" fill="#F37676"/>
<ellipse cx="372.933" cy="304" rx="291.83" ry="269.978" fill="#DD6C6C"/>
<ellipse cx="372.933" cy="300.228" rx="257.192" ry="251.951" fill="#CD4F4F"/>
<ellipse cx="372.933" cy="299.808" rx="216.491" ry="198.71" fill="#D65555"/>
<g clip-path="url(#clip0_13_16)">
<path opacity="0.1" d="M290.237 473.804C314.149 473.804 333.532 470.689 333.532 466.847C333.532 463.004 314.149 459.889 290.237 459.889C266.326 459.889 246.942 463.004 246.942 466.847C246.942 470.689 266.326 473.804 290.237 473.804Z" fill="white"/>
<path opacity="0.1" d="M525.584 474C555.422 474 579.61 470.885 579.61 467.042C579.61 463.199 555.422 460.084 525.584 460.084C495.747 460.084 471.558 463.199 471.558 467.042C471.558 470.885 495.747 474 525.584 474Z" fill="white"/>
<path opacity="0.1" d="M133.15 276.361H178.244V337.862H136.451C136.34 338.493 136.233 339.129 136.118 339.765H178.244V389.363C178.169 389.341 178.102 389.314 178.031 389.288C176.84 388.816 175.658 388.319 174.476 387.785L173.721 387.443C172.536 386.882 171.351 386.29 170.166 385.664C169.753 385.446 169.34 385.22 168.931 384.989C162.353 381.302 156.378 376.63 151.211 371.135C151.06 370.988 150.918 370.833 150.767 370.69C150.047 369.908 149.341 369.117 148.657 368.307L147.901 367.418C147.093 366.427 146.311 365.409 145.551 364.377C145.44 364.226 145.333 364.075 145.217 363.933C142.127 359.646 139.562 355.004 137.575 350.106C137.513 349.959 137.46 349.799 137.402 349.661C136.792 348.09 136.251 346.505 135.78 344.904C135.576 344.233 135.38 343.57 135.211 342.872C135.149 342.668 135.096 342.468 135.047 342.268C132.523 332.411 132.225 322.172 132.225 312.004C132.225 310.817 132.225 309.626 132.225 308.448C132.225 304.335 132.274 300.196 132.345 296.061C132.345 294.99 132.39 293.923 132.412 292.847C132.474 290.117 132.563 287.387 132.679 284.657C132.705 283.897 132.741 283.141 132.781 282.386C132.781 281.95 132.803 281.514 132.847 281.078C132.954 279.496 133.043 277.926 133.15 276.361Z" fill="white"/>
<path opacity="0.1" d="M178.244 207.885H153.509C157.529 201.588 161.923 195.536 166.665 189.763C170.34 185.246 174.219 180.845 178.244 176.604V207.885Z" fill="white"/>
<path opacity="0.1" d="M178.244 209.788V274.458H133.292C133.292 274.272 133.323 274.081 133.336 273.894C133.376 273.383 133.416 272.871 133.461 272.364C133.509 271.769 133.563 271.168 133.621 270.586C133.678 270.004 133.741 269.292 133.807 268.648C133.874 268.003 133.936 267.349 134.012 266.705C134.087 266.06 134.154 265.415 134.234 264.775C134.314 264.135 134.385 263.486 134.469 262.846C134.536 262.312 134.607 261.783 134.678 261.25C134.78 260.498 134.887 259.742 135.002 258.996C135.002 258.884 135.034 258.769 135.051 258.662C135.862 253.194 136.967 247.774 138.362 242.426C139.821 236.815 141.685 231.317 143.938 225.976C146.333 220.388 149.137 214.985 152.327 209.81L178.244 209.788Z" fill="white"/>
<path opacity="0.1" d="M189.01 276.356V337.861H285.327V276.356H189.01ZM189.01 339.76V392.577C189.561 392.693 190.108 392.804 190.65 392.897C191.388 393.04 192.121 393.169 192.872 393.28C193.014 393.302 193.161 393.324 193.316 393.338C193.609 393.386 193.911 393.426 194.205 393.466C194.947 393.569 195.684 393.653 196.426 393.72C196.777 393.755 197.133 393.787 197.488 393.813L198.346 393.88C198.812 393.916 199.274 393.942 199.732 393.956C200.016 393.956 200.301 393.982 200.594 393.991C200.816 393.991 201.038 393.991 201.269 393.991C201.501 393.991 201.829 393.991 202.109 393.991C202.491 393.991 202.874 393.991 203.251 393.991H203.762C204.144 393.991 204.526 393.991 204.904 393.956H204.931C205.193 393.956 205.46 393.956 205.726 393.92C205.8 393.924 205.874 393.924 205.948 393.92C206.17 393.92 206.393 393.92 206.606 393.889H206.761L208.25 393.773C208.739 393.729 209.232 393.671 209.729 393.618L210.743 393.498C214.864 392.92 218.94 392.052 222.939 390.901C231.924 388.394 240.712 384.886 249.692 382.316C261.303 379.004 274.13 377.377 285.35 381.427V339.76H189.01ZM285.327 207.885V126.004C274.782 125.89 264.266 127.124 254.033 129.677C229.644 135.808 207.761 149.105 189.01 166.089V207.88H193.845V209.779H189.01V274.458H285.327V209.783H213.693V207.885H285.327ZM409.042 180.227C403.008 180.013 397.009 178.102 391.584 175.15C381.209 169.503 372.922 160.785 363.662 153.427C344.423 138.102 320.563 128.854 296.085 126.56V207.885H433.582L433.924 207.525L409.042 180.227ZM421.567 178.004L434.848 192.586V174.18C430.4 174.732 426.504 176.043 421.585 177.986L421.567 178.004ZM434.848 405.693V339.76H406.549C406.473 339.48 406.398 339.195 406.309 338.911C406.393 339.195 406.465 339.48 406.544 339.76H296.102V387.442C297.151 388.22 298.186 389.038 299.213 389.87C300.319 390.759 301.412 391.697 302.51 392.617L303.616 393.533C304.145 393.978 304.678 394.422 305.216 394.84C306.282 395.706 307.359 396.559 308.446 397.401C308.983 397.846 309.534 398.246 310.081 398.664C318.757 405.301 327.91 411.291 337.465 416.585C339.607 417.771 341.767 418.928 343.948 420.058C345.401 420.8 346.862 421.538 348.329 422.254C350.533 423.33 352.754 424.367 354.994 425.366C375.64 434.639 397.472 441.003 419.865 444.274C424.839 445.01 429.832 445.587 434.844 446.008V405.688H435.288L434.848 405.693ZM296.102 209.783V274.458H434.866V209.783H296.102ZM296.102 276.356V337.861H434.866V276.356H296.102ZM445.636 174.1V194.632L462.588 176.021C456.971 175.114 451.321 174.466 445.636 174.078V174.1ZM445.636 276.379V337.861H580.601V276.356L445.636 276.379ZM580.108 410.574L580.583 339.76H445.636V446.715C454.33 447.081 463.036 446.977 471.718 446.404H471.87C476.017 446.143 480.144 445.764 484.253 445.266H484.346C506.265 442.713 527.698 436.991 547.974 428.278M606.625 286.484C606.119 285.288 605.59 284.101 605.052 282.928C604.048 280.705 602.986 278.544 601.893 276.383H591.363V337.861H617.987C617.973 320.451 613.57 302.667 606.639 286.462L606.625 286.484ZM591.363 339.782V400.691C598.863 393.498 605.199 385.268 609.762 375.861C615.25 364.532 617.76 352.266 617.965 339.773L591.363 339.782ZM591.363 258.457V274.463H600.907C598.02 268.953 594.838 263.603 591.376 258.435L591.363 258.457ZM499.831 186.167C499.129 185.9 498.427 185.629 497.721 185.366C490.27 182.613 482.656 180.323 474.922 178.511L448.982 206.996L448.485 207.525L448.818 207.889H541.14C528.282 199.033 514.42 191.734 499.844 186.144L499.831 186.167ZM543.846 209.806H447.529L445.636 211.539V274.458H462.228H462.254H580.619V243.981C569.911 231.024 557.553 219.527 543.86 209.783L543.846 209.806Z" fill="white"/>
<path opacity="0.1" d="M178.244 242.407V274.458H133.292C133.292 274.271 133.323 274.08 133.336 273.893C133.376 273.382 133.416 272.871 133.461 272.364C133.509 271.768 133.563 271.168 133.621 270.585C133.678 270.003 133.741 269.292 133.807 268.647C133.874 268.002 133.936 267.349 134.012 266.704C134.087 266.06 134.154 265.415 134.234 264.775C134.314 264.134 134.385 263.485 134.469 262.845C134.536 262.312 134.607 261.783 134.678 261.249C134.78 260.498 134.887 259.742 135.002 258.995C135.002 258.884 135.034 258.768 135.051 258.662C135.862 253.194 136.967 247.774 138.362 242.425L178.244 242.407Z" fill="white"/>
<path opacity="0.1" d="M133.15 276.361H178.244V337.862H136.451C136.34 338.493 136.233 339.129 136.118 339.765H178.244V389.363C178.169 389.341 178.102 389.314 178.031 389.288C176.84 388.816 175.658 388.319 174.476 387.785L173.721 387.443C172.536 386.882 171.351 386.29 170.166 385.664C169.753 385.446 169.34 385.22 168.931 384.989C162.353 381.302 156.378 376.63 151.211 371.135C151.06 370.988 150.918 370.833 150.767 370.69C150.047 369.908 149.341 369.117 148.657 368.307L147.901 367.418C147.093 366.427 146.311 365.409 145.551 364.377C145.44 364.226 145.333 364.075 145.217 363.933C142.127 359.646 139.562 355.004 137.575 350.106C137.513 349.959 137.46 349.799 137.402 349.661C136.792 348.09 136.251 346.505 135.78 344.904C135.576 344.233 135.38 343.57 135.211 342.872C135.149 342.668 135.096 342.468 135.047 342.268C132.523 332.411 132.225 322.172 132.225 312.004C132.225 310.817 132.225 309.626 132.225 308.448C132.225 304.335 132.274 300.196 132.345 296.061C132.345 294.99 132.39 293.923 132.412 292.847C132.474 290.117 132.563 287.387 132.679 284.657C132.705 283.897 132.741 283.141 132.781 282.386C132.781 281.95 132.803 281.514 132.847 281.078C132.954 279.496 133.043 277.926 133.15 276.361Z" fill="white"/>
<path opacity="0.1" d="M222.917 219.044V274.458H189.01V219.044H193.845V200.282H213.688V219.044H222.917Z" fill="white"/>
<path opacity="0.1" d="M222.917 276.356H189.015V337.857H222.917V276.356Z" fill="white"/>
<path opacity="0.1" d="M189.01 339.765H222.917V390.893C218.918 392.043 214.842 392.909 210.72 393.485L209.707 393.609C209.21 393.667 208.716 393.716 208.228 393.765C207.739 393.814 207.232 393.849 206.739 393.88H206.584C206.37 393.88 206.139 393.907 205.931 393.912H205.704C205.437 393.912 205.171 393.938 204.904 393.947C204.526 393.969 204.149 393.974 203.762 393.978C203.598 393.978 203.442 393.978 203.278 393.978C202.896 393.978 202.518 393.978 202.136 393.978H201.296C201.07 393.978 200.852 393.978 200.616 393.978L199.759 393.947C199.314 393.947 198.835 393.898 198.372 393.867L197.519 393.805L196.457 393.707C195.711 393.64 194.969 393.556 194.236 393.454L193.347 393.329L192.903 393.267C192.161 393.151 191.428 393.027 190.681 392.884C190.135 392.791 189.593 392.676 189.042 392.564L189.01 339.765Z" fill="white"/>
<path opacity="0.1" d="M434.866 212.5H406.909V274.454H434.866V212.5Z" fill="white"/>
<path opacity="0.1" d="M434.87 276.356V337.861H296.102V311.332H370.016V326.982H406.909V276.356H434.87Z" fill="white"/>
<path opacity="0.1" d="M435.31 405.706H434.866V446.053C429.86 445.629 424.868 445.052 419.892 444.323C397.487 441.041 375.646 434.664 354.993 425.375C349.031 422.69 343.189 419.758 337.469 416.581C327.915 411.284 318.761 405.294 310.081 398.659C307.901 396.988 305.749 395.277 303.625 393.529C302.154 392.315 300.692 391.07 299.213 389.861C298.186 389.029 297.151 388.211 296.102 387.429V339.764H406.54C406.464 339.48 406.389 339.195 406.309 338.915C406.393 339.195 406.473 339.48 406.549 339.764H434.866V405.679C435.017 405.684 435.164 405.697 435.31 405.706Z" fill="white"/>
<path opacity="0.1" d="M507.78 207.885H489.562V202.221H497.729V185.349C498.437 185.606 499.142 185.872 499.844 186.144V202.221H507.78V207.885Z" fill="white"/>
<path opacity="0.1" d="M551.671 274.458H462.236C462.236 274.458 462.236 274.458 462.267 274.481L462.227 274.458H445.636V212.505H450.337V258.298H471.82V231.177H489.567V209.788H507.784V231.195H525.531V258.315H551.671V274.458Z" fill="white"/>
<path opacity="0.1" d="M445.636 276.356V337.861H551.671V276.356H445.636ZM580.454 410.259L580.601 361.576H551.671V339.791H445.636V446.715C454.33 447.081 463.036 446.977 471.718 446.404H471.869C476.016 446.143 480.144 445.764 484.253 445.266H484.346C506.265 442.713 527.698 436.991 547.974 428.278" fill="white"/>
<path opacity="0.1" d="M593.247 339.765H617.982C617.765 352.253 615.259 364.52 609.776 375.848C605.212 385.26 598.872 393.489 591.38 400.678V361.554H593.247V339.765Z" fill="white"/>
<path opacity="0.1" d="M617.996 337.861H593.247V286.462H606.639C613.57 302.667 617.973 320.451 617.996 337.861Z" fill="white"/>
<path opacity="0.1" d="M434.87 229.724H419.892V249.148H434.87V229.724Z" fill="white"/>
<path opacity="0.1" d="M434.87 269.985H419.892V274.458H434.87V269.985Z" fill="white"/>
<path opacity="0.1" d="M434.87 276.356H419.892V289.405H434.87V276.356Z" fill="white"/>
<path opacity="0.1" d="M434.87 310.248H419.892V329.672H434.87V310.248Z" fill="white"/>
<path opacity="0.1" d="M434.87 350.51H419.892V369.934H434.87V350.51Z" fill="white"/>
<path opacity="0.1" d="M434.866 405.68C435.017 405.68 435.164 405.68 435.31 405.706H434.866V410.219H419.892V390.772H434.866V405.68Z" fill="white"/>
<path opacity="0.1" d="M434.866 431.025V446.03C429.86 445.607 424.869 445.03 419.892 444.301V431.025H434.866Z" fill="white"/>
<path opacity="0.1" d="M360.294 336.435H296.102V337.862H360.294V336.435Z" fill="white"/>
<path opacity="0.1" d="M360.294 339.76H296.102V345.228H360.294V339.76Z" fill="white"/>
<path opacity="0.1" d="M360.294 363.154H296.102V371.948H360.294V363.154Z" fill="white"/>
<path opacity="0.1" d="M360.29 389.874V398.668H310.081C307.901 397.002 305.747 395.292 303.62 393.537C302.149 392.324 300.692 391.079 299.208 389.874H360.29Z" fill="white"/>
<path opacity="0.1" d="M360.29 416.589V425.375H354.989C349.032 422.686 343.192 419.754 337.469 416.576L360.29 416.589Z" fill="white"/>
<path opacity="0.1" d="M484.36 282.318H471.723V294.963H484.36V282.318Z" fill="white"/>
<path opacity="0.1" d="M210.751 223.405H198.115V236.049H210.751V223.405Z" fill="white"/>
<path opacity="0.1" d="M210.751 252.775H198.115V265.42H210.751V252.775Z" fill="white"/>
<path opacity="0.1" d="M210.751 282.146H198.115V294.79H210.751V282.146Z" fill="white"/>
<path opacity="0.1" d="M210.751 311.511H198.115V324.155H210.751V311.511Z" fill="white"/>
<path opacity="0.1" d="M210.751 340.88H198.115V353.524H210.751V340.88Z" fill="white"/>
<path opacity="0.1" d="M210.751 370.25H198.115V382.894H210.751V370.25Z" fill="white"/>
<path opacity="0.1" d="M532.6 282.318H519.963V294.963H532.6V282.318Z" fill="white"/>
<path opacity="0.1" d="M484.36 313.507H471.723V326.151H484.36V313.507Z" fill="white"/>
<path opacity="0.1" d="M532.6 313.507H519.963V326.151H532.6V313.507Z" fill="white"/>
<path opacity="0.1" d="M484.36 344.69H471.723V357.335H484.36V344.69Z" fill="white"/>
<path opacity="0.1" d="M532.6 344.69H519.963V357.335H532.6V344.69Z" fill="white"/>
<path opacity="0.1" d="M484.36 375.879H471.723V388.523H484.36V375.879Z" fill="white"/>
<path opacity="0.1" d="M532.6 375.879H519.963V388.523H532.6V375.879Z" fill="white"/>
<path opacity="0.1" d="M484.36 407.066H471.723V419.711H484.36V407.066Z" fill="white"/>
<path opacity="0.1" d="M532.6 407.066H519.963V419.711H532.6V407.066Z" fill="white"/>
<path opacity="0.1" d="M471.723 446.404V438.25H484.355V445.243L471.723 446.404Z" fill="white"/>
<path opacity="0.1" d="M134.998 258.653V265.887H178.244V258.653H134.998ZM139.308 265.433H135.78V259.098H139.334L139.308 265.433ZM143.613 265.433H140.059V259.098H143.613V265.433ZM147.91 265.433H144.355V259.098H147.91V265.433ZM152.216 265.433H148.665V259.098H152.22L152.216 265.433ZM156.517 265.433H152.962V259.098H156.517V265.433ZM160.822 265.433H157.268V259.098H160.822V265.433ZM165.128 265.433H161.573V259.098H165.128V265.433ZM169.429 265.433H165.874V259.098H169.429V265.433ZM173.73 265.433H170.175V259.098H173.73V265.433ZM178.031 265.433H174.476V259.098H178.031V265.433Z" fill="white"/>
<path opacity="0.1" d="M134.998 279.7V286.934H178.244V279.7H134.998ZM139.308 286.476H135.78V280.158H139.334L139.308 286.476ZM143.613 286.476H140.059V280.158H143.613V286.476ZM147.91 286.476H144.355V280.158H147.91V286.476ZM152.216 286.476H148.665V280.158H152.22L152.216 286.476ZM156.517 286.476H152.962V280.158H156.517V286.476ZM160.822 286.476H157.268V280.158H160.822V286.476ZM165.128 286.476H161.573V280.158H165.128V286.476ZM169.429 286.476H165.874V280.158H169.429V286.476ZM173.73 286.476H170.175V280.158H173.73V286.476ZM178.031 286.476H174.476V280.158H178.031V286.476Z" fill="white"/>
<path opacity="0.1" d="M134.998 300.756V308.003H178.244V300.756H134.998ZM139.308 307.531H135.78V301.209H139.334L139.308 307.531ZM143.613 307.531H140.059V301.209H143.613V307.531ZM147.91 307.531H144.355V301.209H147.91V307.531ZM152.216 307.531H148.665V301.209H152.22L152.216 307.531ZM156.517 307.531H152.962V301.209H156.517V307.531ZM160.822 307.531H157.268V301.209H160.822V307.531ZM165.128 307.531H161.573V301.209H165.128V307.531ZM169.429 307.531H165.874V301.209H169.429V307.531ZM173.73 307.531H170.175V301.209H173.73V307.531ZM178.031 307.531H174.476V301.209H178.031V307.531Z" fill="white"/>
<path opacity="0.1" d="M134.998 321.812V329.036H178.244V321.812H134.998ZM139.308 328.587H135.78V322.261H139.334L139.308 328.587ZM143.613 328.587H140.059V322.261H143.613V328.587ZM147.91 328.587H144.355V322.261H147.91V328.587ZM152.216 328.587H148.665V322.261H152.22L152.216 328.587ZM156.517 328.587H152.962V322.261H156.517V328.587ZM160.822 328.587H157.268V322.261H160.822V328.587ZM165.128 328.587H161.573V322.261H165.128V328.587ZM169.429 328.587H165.874V322.261H169.429V328.587ZM173.73 328.587H170.175V322.261H173.73V328.587ZM178.031 328.587H174.476V322.261H178.031V328.587Z" fill="white"/>
<path opacity="0.1" d="M135.185 342.863C135.358 343.544 135.553 344.224 135.758 344.895V343.317H139.312V349.639H137.411C137.468 349.786 137.526 349.946 137.584 350.083H178.244V342.863H135.185ZM143.627 349.639H140.072V343.317H143.627V349.639ZM147.923 349.639H144.369V343.317H147.923V349.639ZM152.229 349.639H148.665V343.317H152.22L152.229 349.639ZM156.53 349.639H152.975V343.317H156.53V349.639ZM160.836 349.639H157.281V343.317H160.836V349.639ZM165.141 349.639H161.587V343.317H165.141V349.639ZM169.442 349.639H165.888V343.317H169.442V349.639ZM173.743 349.639H170.189V343.317H173.743V349.639ZM178.044 349.639H174.49V343.317H178.044V349.639Z" fill="white"/>
<path opacity="0.1" d="M145.226 363.919C145.337 364.061 145.444 364.221 145.56 364.364H147.91V367.4C148.163 367.702 148.412 368.005 148.67 368.289V364.346H152.224V370.69H150.785C150.927 370.837 151.065 370.992 151.229 371.135H178.258V363.919H145.226ZM156.517 370.69H152.962V364.372H156.517V370.69ZM160.822 370.69H157.268V364.372H160.822V370.69ZM165.128 370.69H161.573V364.372H165.128V370.69ZM169.429 370.69H165.874V364.372H169.429V370.69ZM173.73 370.69H170.175V364.372H173.73V370.69ZM178.031 370.69H174.476V364.372H178.031V370.69Z" fill="white"/>
<path opacity="0.1" d="M168.949 384.971C169.353 385.202 169.767 385.415 170.184 385.646V385.424H173.739V387.425L174.494 387.776V385.424H178.049V389.27C178.117 389.304 178.188 389.331 178.262 389.35V384.971H168.949Z" fill="white"/>
<path opacity="0.1" d="M462.237 274.459H462.263H462.237ZM434.866 405.676H435.31H434.866ZM406.309 338.911C406.393 339.196 406.465 339.48 406.544 339.76C406.473 339.48 406.398 339.196 406.309 338.911ZM462.237 274.445H462.263H462.237ZM193.863 207.872V209.77H213.711V207.872H193.863ZM434.866 405.676H435.31H434.866ZM406.309 338.911C406.393 339.196 406.465 339.48 406.544 339.76C406.473 339.48 406.398 339.196 406.309 338.911ZM462.237 274.445H462.263H462.237ZM434.866 405.662H435.31H434.866ZM406.309 338.911C406.393 339.196 406.465 339.48 406.544 339.76C406.473 339.48 406.398 339.196 406.309 338.911Z" fill="white"/>
<path d="M332.102 294.798C332.102 294.798 330.351 294.553 330.351 292.001C330.351 289.449 329.098 284.683 329.098 284.683C329.098 284.661 328.014 276.383 326.516 275.067C325.019 273.751 323.095 266.024 323.095 266.024C323.095 266.024 322.766 261.831 322.095 260.929C321.424 260.026 320.518 257.817 319.181 254.664C317.843 251.512 312.267 249.329 312.267 249.329C312.267 249.329 302.185 243.479 299.328 241.571C299.068 241.415 298.826 241.231 298.604 241.024C298.106 240.371 295.938 240.358 295.938 240.358C295.711 238.926 295.493 237.281 295.422 235.792C295.422 235.631 295.422 235.471 295.4 235.311C298.586 233.427 300.986 230.456 302.158 226.944C302.212 226.775 302.256 226.597 302.305 226.428C302.496 226.366 302.672 226.263 302.821 226.129C302.97 225.994 303.089 225.83 303.171 225.646C303.429 225.072 303.434 224.401 303.754 223.868C304.127 223.236 304.838 222.898 305.398 222.423C306.81 221.222 307.175 219.199 307.108 217.359C307.064 215.869 306.824 214.367 306.917 212.886L306.944 212.513C306.97 212.29 307.002 212.068 307.042 211.855C307.259 210.752 307.735 209.712 308.001 208.618C308.268 207.524 308.295 206.293 307.672 205.35C306.762 203.968 304.864 203.692 303.198 203.55C301.31 203.39 299.621 203.599 298.413 202.029C297.847 201.209 297.211 200.44 296.511 199.731C296.262 199.499 293.845 198.023 293.845 197.926C291.486 196.832 288.812 196.627 286.314 197.348C285.061 197.712 283.879 198.308 282.608 198.606C279.866 199.255 276.712 198.553 274.383 200.122C273.086 201.011 272.308 202.425 271.58 203.803C270.987 204.938 270.386 206.072 269.776 207.204C268.794 209.067 267.794 210.961 267.381 213.024C267.294 213.473 267.24 213.928 267.221 214.384V214.407C267.221 214.571 267.221 214.736 267.221 214.9V215.109C267.221 215.265 267.221 215.416 267.248 215.554C267.274 215.692 267.27 215.736 267.283 215.829C267.296 215.923 267.319 216.132 267.345 216.274C267.372 216.416 267.425 216.665 267.479 216.861C267.501 216.945 267.532 217.025 267.559 217.105C267.603 217.256 267.656 217.403 267.714 217.55C267.745 217.625 267.776 217.706 267.812 217.781C267.878 217.937 267.958 218.088 268.038 218.226C268.074 218.288 268.101 218.346 268.136 218.404C268.26 218.61 268.397 218.809 268.545 218.999C269.496 220.186 270.895 220.942 271.931 222.054C271.931 222.098 271.931 222.143 271.931 222.183C271.931 222.307 271.931 222.427 271.931 222.552C271.986 225.03 272.645 227.458 273.852 229.624C275.058 231.79 276.775 233.628 278.853 234.978C278.853 235.147 278.876 235.32 278.884 235.489C278.971 236.809 278.955 238.133 278.836 239.451C278.655 239.237 278.428 239.067 278.173 238.954C277.918 238.84 277.64 238.785 277.36 238.793C277.17 238.783 276.978 238.8 276.792 238.841L276.752 238.81V238.85C275.774 239.09 274.57 240.109 273.419 243.003C273.419 243.003 269.918 246.951 267.252 246.786C264.586 246.622 257.837 250.894 257.837 250.894C257.837 250.894 251.252 255.171 249.839 259.528C249.049 261.999 248.102 264.417 247.004 266.766L238.864 283.55L237.362 296.865C237.362 296.865 238.193 302.787 238.029 303.69C237.864 304.592 241.445 312.733 241.445 312.733C241.445 312.733 253.278 333.535 258.112 334.602L258.459 334.358C258.666 334.466 258.885 334.548 259.112 334.602L260.107 333.9C260.167 334.683 260.142 335.47 260.032 336.247C259.365 338.301 260.28 351.706 261.445 354.333C262.609 356.961 262.196 391.412 262.196 391.412L262.031 394.453C262.031 394.453 262.031 394.551 262.071 394.72L262.031 395.44L262.151 395.502C262.276 396.467 262.235 397.446 262.031 398.397C261.613 399.73 261.445 403.501 261.445 403.501C261.445 403.501 258.117 424.788 259.694 429.065C261.271 433.342 262.613 438.028 262.613 438.028C262.613 438.028 264.279 443.363 262.693 444.274C261.107 445.186 256.597 446.715 257.526 448.938C258.37 450.992 261.573 456.496 262.049 457.301L262.009 457.723L261.356 464.805C261.462 465.741 261.715 466.653 262.107 467.509C262.822 469.051 264.213 470.652 266.857 470.478C267.301 470.447 267.816 470.394 268.314 470.327C273.153 469.678 279.111 467.517 279.111 467.517C278.802 467.321 278.518 467.086 278.267 466.819C278.029 466.589 277.841 466.312 277.713 466.007C277.585 465.701 277.521 465.372 277.525 465.041C277.596 463.752 275.183 457.607 274.583 456.096C274.49 455.878 274.441 455.754 274.441 455.754C274.441 455.754 279.942 450 279.027 444.901C279.027 444.901 272.939 441.344 274.943 439.393C276.947 437.441 280.529 431.834 280.529 431.834C280.529 431.834 280.693 410.872 280.529 407.742C280.357 405.57 280.46 403.384 280.835 401.238C280.902 400.913 280.982 400.597 281.066 400.286C283.838 400.7 286.635 400.913 289.437 400.922C290.459 400.922 291.499 400.922 292.548 400.86C292.548 401.156 292.561 401.476 292.588 401.82C292.819 407.013 293.25 416.118 293.601 419.501C294.098 424.352 296.849 437.423 296.849 437.423C296.849 437.423 291.601 440.793 297.764 449.098C297.764 449.098 297.764 452.108 297.355 452.544C296.919 453.968 296.567 455.417 296.302 456.883C296.044 458.448 295.938 460.03 296.355 460.853C297.355 462.818 303.354 462.658 303.354 462.658L303.5 462.631C304.633 462.514 305.777 462.623 306.867 462.952C307.957 463.281 308.971 463.823 309.85 464.548C312.129 466.379 320.78 465.575 325.463 464.992C327.298 464.761 328.525 464.548 328.525 464.548C328.584 464.34 328.605 464.123 328.587 463.907C328.538 462.756 327.636 460.231 321.522 457.976C321.522 457.976 315.773 454.108 315.853 450.738H315.733H315.066C315.55 450.712 315.861 450.738 315.861 450.738C315.861 450.738 313.609 442.514 314.528 441.847C315.448 441.18 312.693 432.066 312.693 432.066C312.693 432.066 311.116 416.772 311.032 415.7C311.035 414.781 311.174 413.867 311.445 412.988L311.032 404.603C311.032 404.603 310.952 401.816 311.032 400.909C311.018 400.121 310.954 399.336 310.841 398.557C310.801 398.245 310.761 397.921 310.716 397.601C312.871 397.054 314.271 396.547 314.271 396.547L314.022 367.36C315.853 363.803 316.19 356 316.181 350.465C316.181 346.908 316.021 344.276 316.021 344.276L318.523 340.191C318.523 340.191 319.101 335.3 318.185 334.229C317.781 333.744 317.963 333.242 318.296 332.828C318.469 332.691 318.652 332.566 318.843 332.455C318.843 332.455 318.816 332.415 318.785 332.357C318.96 332.211 319.145 332.079 319.341 331.961C319.341 331.961 318.452 330.583 319.247 330.001C319.994 330.507 320.66 330.89 321.167 331.201C321.131 331.526 321.096 331.712 321.096 331.712L321.309 331.268C321.798 331.543 322.095 331.712 322.095 331.712C322.095 331.712 326.014 323.901 325.93 322.749C325.846 321.598 328.596 316.747 328.596 316.747C328.596 316.747 328.929 314.2 330.431 313.133C331.933 312.066 331.595 304.334 331.595 304.334C331.595 304.334 332.013 300.306 333.013 298.661C334.012 297.016 332.102 294.798 332.102 294.798ZM257.117 291.37L257.192 293.233C256.748 292.517 256.428 292.001 256.428 292.001L257.117 291.37Z" fill="url(#paint0_linear_13_16)"/>
<path d="M322.309 328.338L321.349 332.428C321.349 332.428 313.662 328.502 312.276 323.514C310.889 318.526 314.595 316.632 314.595 316.632L321.758 319.668L322.309 328.338Z" fill="white"/>
<path opacity="0.1" d="M322.309 328.338L321.349 332.428C321.349 332.428 313.662 328.502 312.276 323.514C310.889 318.526 314.595 316.632 314.595 316.632L321.758 319.668L322.309 328.338Z" fill="black"/>
<path d="M279.169 467.544C279.169 467.544 272.06 470.158 267.172 470.487C264.577 470.661 263.213 469.069 262.511 467.535C262.127 466.683 261.88 465.775 261.778 464.845L262.413 457.799L262.751 454.046L273.135 451.348L274.606 455.847L274.743 456.189C275.334 457.692 277.703 463.805 277.631 465.081C277.629 465.408 277.692 465.732 277.817 466.034C277.942 466.335 278.127 466.609 278.36 466.837C278.599 467.106 278.87 467.344 279.169 467.544Z" fill="white"/>
<path d="M327.729 463.961C327.747 464.175 327.726 464.39 327.667 464.597C327.667 464.597 312.462 467.135 309.352 464.597C308.475 463.855 307.453 463.305 306.351 462.982C305.249 462.659 304.092 462.57 302.954 462.72C302.954 462.72 297.071 462.88 296.089 460.942C295.68 460.128 295.787 458.55 296.04 456.994C296.298 455.536 296.643 454.094 297.071 452.677L297.306 452.49L298.706 451.365L315.093 450.881H315.217C315.137 454.233 320.78 458.079 320.78 458.079C326.774 460.302 327.658 462.814 327.729 463.961Z" fill="white"/>
<path opacity="0.1" d="M327.73 463.961C327.745 464.175 327.723 464.39 327.663 464.597C327.663 464.597 312.462 467.135 309.352 464.597C308.476 463.856 307.454 463.306 306.353 462.983C305.252 462.66 304.096 462.57 302.958 462.72C302.958 462.72 297.071 462.881 296.093 460.942C295.685 460.124 295.787 458.55 296.04 456.994C298.306 457.221 301.883 457.786 303.287 459.133C305.411 461.182 309.01 463.227 311.218 463.387C312.947 463.499 323.286 463.828 327.73 463.961Z" fill="black"/>
<path opacity="0.1" d="M279.169 467.544C279.169 467.544 272.06 470.158 267.172 470.487C264.577 470.661 263.213 469.069 262.516 467.531C264.324 468.14 266.834 468.78 268.154 468.193C269.718 467.5 275.263 467.051 278.374 466.859C278.61 467.119 278.877 467.349 279.169 467.544Z" fill="black"/>
<path d="M289.717 256.875C283.852 254.594 276.308 247.058 278.191 243.537C278.61 242.648 278.859 241.689 278.925 240.709C279.046 239.379 279.064 238.041 278.978 236.708C278.846 234.525 278.583 232.351 278.191 230.199C278.191 230.199 296.502 230.613 295.436 233.311C295.125 234.103 295.076 235.477 295.16 237.015C295.245 238.553 295.467 240.291 295.698 241.763C296.018 243.782 296.338 245.32 296.338 245.32C296.338 245.32 295.218 246.889 294.561 246.974C293.903 247.058 298.133 260.125 289.717 256.875Z" fill="#CF6F80"/>
<path opacity="0.1" d="M274.73 456.189L274.592 456.34C269.118 449.716 262.498 457.972 262.498 457.972L262.4 457.799L262.738 454.046L273.122 451.348L274.592 455.847L274.73 456.189Z" fill="black"/>
<path opacity="0.1" d="M315.222 451.348C315.222 451.348 311.223 451.263 309.09 453.148C306.957 455.034 296.649 453.557 297.093 453.148C297.225 452.946 297.304 452.714 297.324 452.473L298.724 451.348L315.111 450.863C315.173 451.161 315.222 451.348 315.222 451.348Z" fill="black"/>
<path d="M281.542 399.327C281.244 400.063 281.018 400.827 280.866 401.607C280.496 403.744 280.393 405.918 280.56 408.081C280.724 411.193 280.56 432.049 280.56 432.049C280.56 432.049 277.045 437.61 275.086 439.571C273.126 441.532 279.085 445.053 279.085 445.053C279.973 450.121 274.588 455.848 274.588 455.848C269.114 449.223 262.493 457.484 262.493 457.484C262.493 457.484 258.894 451.259 257.997 449.036C257.099 446.813 261.511 445.275 263.062 444.373C264.613 443.47 262.987 438.148 262.987 438.148C262.987 438.148 261.676 433.485 260.121 429.23C258.565 424.975 261.836 403.795 261.836 403.795C261.836 403.795 262.005 400.033 262.409 398.722C262.613 397.776 262.653 396.801 262.529 395.841C262.502 395.516 262.471 395.245 262.449 395.063C262.427 394.881 262.409 394.796 262.409 394.796L262.471 394.689L264.693 390.546C264.693 390.546 282.608 396.717 281.542 399.327Z" fill="white"/>
<path d="M315.222 450.859C315.222 450.859 311.223 450.774 309.09 452.637C306.957 454.5 296.649 453.046 297.093 452.637C297.537 452.228 297.502 449.2 297.502 449.2C291.455 440.94 296.613 437.588 296.613 437.588C296.613 437.588 293.912 424.583 293.423 419.76C293.081 416.39 292.659 407.333 292.432 402.163C292.334 399.94 292.277 398.41 292.277 398.41L297.218 397.414L297.853 397.285L309.77 394.894C309.77 394.894 310.099 397.117 310.321 398.935C310.432 399.711 310.494 400.494 310.507 401.278C310.427 402.167 310.507 404.95 310.507 404.95L310.912 413.295C310.648 414.171 310.511 415.08 310.507 415.994C310.587 417.056 312.138 432.27 312.138 432.27C312.138 432.27 314.835 441.349 313.915 442.003C312.996 442.656 315.222 450.859 315.222 450.859Z" fill="white"/>
<path opacity="0.1" d="M295.436 233.311C295.125 234.103 295.076 235.477 295.16 237.015C292.708 238.493 289.888 239.248 287.026 239.195C284.163 239.141 281.374 238.281 278.978 236.712C278.846 234.528 278.583 232.353 278.191 230.199C278.191 230.199 296.502 230.604 295.436 233.311Z" fill="black"/>
<path d="M302.514 223.486C302.518 225.088 302.266 226.68 301.768 228.203C300.654 231.614 298.372 234.523 295.323 236.413C292.274 238.303 288.655 239.055 285.107 238.534C281.558 238.013 278.307 236.254 275.93 233.567C273.552 230.88 272.2 227.438 272.113 223.85C272.113 223.726 272.113 223.61 272.113 223.486C272.079 221.466 272.446 219.46 273.195 217.584C273.943 215.708 275.058 214 276.473 212.56C277.888 211.12 279.575 209.976 281.437 209.195C283.299 208.414 285.297 208.012 287.316 208.012C289.334 208.012 291.333 208.414 293.194 209.195C295.056 209.976 296.744 211.12 298.159 212.56C299.574 214 300.688 215.708 301.437 217.584C302.185 219.46 302.553 221.466 302.518 223.486H302.514Z" fill="#CF6F80"/>
<path opacity="0.1" d="M289.717 256.874C283.852 254.594 276.308 247.058 278.191 243.537C278.61 242.648 278.859 241.689 278.925 240.709L286.954 247.311L291.921 251.388L295.698 241.767C296.018 243.786 296.338 245.324 296.338 245.324C296.338 245.324 295.218 246.893 294.561 246.978C293.903 247.062 298.133 260.124 289.717 256.874Z" fill="black"/>
<path d="M310.481 286.053L303.776 398.757L295.031 399.33L272.388 333.98L276.103 256.394L276.885 240.002L286.953 248.276L291.926 252.353L295.813 242.452L303.043 248.756L310.481 286.053Z" fill="white"/>
<path opacity="0.1" d="M281.542 399.326C281.244 400.063 281.018 400.827 280.866 401.607C274.503 400.624 268.324 398.692 262.533 395.876L262.413 395.814L262.453 395.098L262.476 394.725L264.697 390.581C264.697 390.581 282.608 396.716 281.542 399.326Z" fill="black"/>
<path opacity="0.1" d="M297.32 401.625C295.693 401.901 294.053 402.088 292.406 402.185C292.308 399.962 292.25 398.432 292.25 398.432L297.191 397.437L297.32 401.625Z" fill="black"/>
<path opacity="0.1" d="M310.294 398.957C307.135 399.78 302.256 400.705 297.888 400.127L297.826 397.308L309.743 394.916C309.743 394.916 310.072 397.117 310.294 398.957Z" fill="black"/>
<path opacity="0.1" d="M297.809 400.642C279.591 403.754 262.907 394.831 262.907 394.831L263.067 391.808C263.067 391.808 263.48 357.534 262.333 354.907C261.187 352.279 260.294 338.955 260.943 336.91C261.591 334.865 258.574 304.197 258.574 304.197L258.086 291.748L240.197 284.497L248.195 267.816C249.275 265.477 250.204 263.071 250.976 260.613C252.367 256.283 258.823 252.028 258.823 252.028C258.823 252.028 265.444 247.778 268.061 247.938C270.678 248.098 274.108 244.177 274.108 244.177C276.641 237.717 278.934 240.642 278.934 240.642C278.934 240.949 278.934 240.642 278.809 241.598C277.92 248.689 293.179 271.097 293.396 271.492L294.849 306.909L296.32 351.728L297.809 400.642Z" fill="black"/>
<path d="M297.32 400.642C279.102 403.754 262.413 394.831 262.413 394.831L262.578 391.808C262.578 391.808 262.991 357.535 261.84 354.907C260.689 352.28 259.801 338.955 260.454 336.91C261.107 334.865 258.086 304.197 258.086 304.197L257.592 291.748L239.695 284.47L247.693 267.789C248.771 265.45 249.7 263.044 250.474 260.587C251.861 256.257 258.321 252.002 258.321 252.002C258.321 252.002 264.942 247.752 267.554 247.912C270.167 248.072 273.601 244.15 273.601 244.15C276.139 237.69 278.933 240.616 278.933 240.616C278.933 240.923 278.667 241.06 278.809 241.572C280.764 248.45 292.69 271.07 292.908 271.466L294.378 306.882L295.849 351.702L297.32 400.642Z" fill="white"/>
<path opacity="0.1" d="M292.41 272.475C290.45 271.657 280.071 259.8 280.071 259.8V257.101C279.693 256.212 277.449 256.754 275.628 257.376L276.41 240.984L277.298 241.722C279.245 248.596 292.183 272.079 292.41 272.475Z" fill="black"/>
<path d="M292.903 271.492C290.939 270.674 280.56 258.817 280.56 258.817V256.118C280.182 255.229 277.938 255.772 276.116 256.394L276.903 240.002L277.792 240.74C279.742 247.613 292.685 271.101 292.903 271.492Z" fill="white"/>
<path opacity="0.1" d="M262.906 330.628C263.151 330.628 275.574 329.321 275.574 329.321C275.574 329.321 283.097 344.122 282.604 347.723C282.11 351.324 281.217 354.512 278.191 353.947C275.165 353.383 261.907 354.392 261.907 354.392L262.906 330.628Z" fill="black"/>
<path d="M262.413 329.645C262.658 329.645 275.081 328.338 275.081 328.338C275.081 328.338 282.599 343.143 282.11 346.74C281.622 350.336 280.72 353.528 277.698 352.964C274.677 352.399 261.414 353.408 261.414 353.408L262.413 329.645Z" fill="white"/>
<path d="M271.775 322.696C271.775 322.696 283.177 328.827 283.421 330.699C283.665 332.571 277.618 329.881 276.312 329.556C275.452 329.349 274.577 329.212 273.695 329.147L264.981 329.383L271.775 322.696Z" fill="#CF6F80"/>
<path opacity="0.1" d="M289.228 273.24C289.891 273.24 290.428 272.702 290.428 272.039C290.428 271.376 289.891 270.839 289.228 270.839C288.566 270.839 288.029 271.376 288.029 272.039C288.029 272.702 288.566 273.24 289.228 273.24Z" fill="black"/>
<path d="M289.228 272.751C289.891 272.751 290.428 272.214 290.428 271.551C290.428 270.888 289.891 270.351 289.228 270.351C288.566 270.351 288.029 270.888 288.029 271.551C288.029 272.214 288.566 272.751 289.228 272.751Z" fill="#3F3D56"/>
<path opacity="0.1" d="M291.437 325.204C292.099 325.204 292.636 324.666 292.636 324.003C292.636 323.34 292.099 322.803 291.437 322.803C290.774 322.803 290.237 323.34 290.237 324.003C290.237 324.666 290.774 325.204 291.437 325.204Z" fill="black"/>
<path d="M291.437 324.71C292.099 324.71 292.636 324.173 292.636 323.51C292.636 322.847 292.099 322.31 291.437 322.31C290.774 322.31 290.237 322.847 290.237 323.51C290.237 324.173 290.774 324.71 291.437 324.71Z" fill="#3F3D56"/>
<path opacity="0.1" d="M290.424 299.222C291.086 299.222 291.623 298.685 291.623 298.022C291.623 297.359 291.086 296.821 290.424 296.821C289.761 296.821 289.224 297.359 289.224 298.022C289.224 298.685 289.761 299.222 290.424 299.222Z" fill="black"/>
<path d="M290.424 298.733C291.086 298.733 291.623 298.195 291.623 297.532C291.623 296.869 291.086 296.332 290.424 296.332C289.761 296.332 289.224 296.869 289.224 297.532C289.224 298.195 289.761 298.733 290.424 298.733Z" fill="#3F3D56"/>
<path d="M318.079 328.898C318.079 328.898 318.896 330.125 318.079 330.699C317.261 331.272 318.159 332.66 318.159 332.66C318.159 332.66 316.119 333.855 317.017 334.931C317.914 336.007 317.346 340.867 317.346 340.867L314.893 344.93C314.893 344.93 315.04 347.549 315.049 351.088C315.049 356.61 314.724 364.372 312.929 367.911L313.178 396.948C313.178 396.948 304.589 400.086 297.4 399.13L296.333 352.537C296.333 352.537 297.889 326.115 298.462 321.047C298.797 318.415 298.934 315.763 298.871 313.111C298.871 313.111 298.626 305.179 297.804 301.498C297.804 301.498 296.916 285.551 296.827 281.136C296.787 279.024 296.898 272.862 297.022 267.002C297.16 260.596 297.315 254.554 297.315 254.554L295.694 241.714C295.694 241.714 297.315 241.549 297.804 242.203C298.023 242.407 298.261 242.591 298.515 242.75C301.314 244.644 311.205 250.468 311.205 250.468C311.205 250.468 316.679 252.646 317.99 255.767C319.301 258.888 320.212 261.102 320.847 261.992C321.482 262.881 321.829 267.06 321.829 267.06C321.829 267.06 323.713 274.751 325.184 276.054C326.654 277.357 327.73 285.644 327.73 285.644L314.733 295.87C314.733 295.87 313.591 312.88 313.347 313.538C313.102 314.196 318.079 328.898 318.079 328.898Z" fill="white"/>
<path d="M318.572 328.898C318.572 328.898 319.385 330.125 318.572 330.699C317.759 331.272 318.647 332.66 318.647 332.66C318.647 332.66 316.621 333.869 317.51 334.945C318.399 336.021 317.839 340.88 317.839 340.88L315.386 344.944C315.386 344.944 315.533 347.562 315.546 351.101C315.546 356.623 315.222 364.386 313.427 367.925L313.671 396.961C313.671 396.961 305.069 400.1 297.888 399.144L296.827 352.551C296.827 352.551 298.382 326.128 298.955 321.06C299.291 318.429 299.426 315.776 299.359 313.124C299.359 313.124 299.115 305.193 298.297 301.511C298.297 301.511 297.409 285.564 297.315 281.149C297.275 279.037 297.391 272.875 297.511 267.015C297.649 260.609 297.804 254.567 297.804 254.567L295.662 241.554C295.662 241.554 297.804 241.554 298.297 242.216C298.514 242.423 298.752 242.607 299.008 242.763C301.807 244.657 311.703 250.481 311.703 250.481C311.703 250.481 317.172 252.66 318.483 255.781C319.794 258.902 320.705 261.116 321.345 262.005C321.984 262.894 322.322 267.073 322.322 267.073C322.322 267.073 324.206 274.765 325.677 276.067C327.147 277.37 328.209 285.639 328.209 285.639L315.213 295.865C315.213 295.865 314.071 312.875 313.822 313.533C313.573 314.191 318.572 328.898 318.572 328.898Z" fill="white"/>
<path opacity="0.1" d="M303.007 258.341L304.18 261.765L298.004 267.989C298.142 261.587 298.297 255.541 298.297 255.541L296.156 242.527C296.156 242.527 298.297 242.527 298.79 243.19C299.007 243.396 299.245 243.578 299.501 243.732L304.753 258.893L303.007 258.341Z" fill="black"/>
<path d="M302.514 257.359L303.691 260.782L297.515 267.007C297.653 260.6 297.808 254.558 297.808 254.558L295.662 241.545C295.662 241.545 297.808 241.545 298.297 242.207C298.515 242.413 298.753 242.596 299.008 242.754L304.265 257.91L302.514 257.359Z" fill="white"/>
<path opacity="0.1" d="M302.514 223.486C302.518 225.088 302.266 226.68 301.768 228.203C301.684 228.216 301.598 228.212 301.515 228.191C301.433 228.171 301.356 228.134 301.288 228.083C301.172 224.081 299.204 220.325 296.782 217.128C296.102 216.163 295.278 215.308 294.338 214.594C293.388 213.88 292.207 213.546 291.024 213.656C289.691 213.838 288.513 214.745 287.167 214.861C285.39 215.007 283.799 213.776 282.035 213.714C281.318 213.72 280.61 213.88 279.96 214.182C279.309 214.484 278.731 214.922 278.263 215.465C277.336 216.562 276.647 217.84 276.241 219.218C275.542 221.307 275.162 223.489 275.112 225.691C275.09 226.936 274.97 228.496 273.815 228.95C273.902 228.034 273.798 227.111 273.509 226.237C273.221 225.364 272.755 224.56 272.14 223.877L272.113 223.85C272.113 223.726 272.113 223.61 272.113 223.486C272.079 221.466 272.446 219.46 273.195 217.584C273.943 215.708 275.058 214 276.473 212.56C277.888 211.12 279.575 209.976 281.437 209.195C283.299 208.414 285.297 208.012 287.316 208.012C289.334 208.012 291.333 208.414 293.194 209.195C295.056 209.976 296.744 211.12 298.159 212.56C299.574 214 300.688 215.708 301.437 217.584C302.185 219.46 302.553 221.466 302.518 223.486H302.514Z" fill="black"/>
<path d="M293.61 199.331C291.301 198.245 288.675 198.039 286.225 198.753C284.994 199.118 283.834 199.709 282.586 200.007C279.92 200.652 276.81 199.954 274.521 201.514C273.251 202.403 272.486 203.808 271.775 205.173L269.998 208.561C269.029 210.415 268.052 212.3 267.648 214.341C267.243 216.381 267.488 218.667 268.781 220.307C269.723 221.503 271.113 222.254 272.135 223.379C272.748 224.063 273.212 224.867 273.499 225.739C273.787 226.611 273.891 227.533 273.806 228.448C274.966 228.003 275.077 226.438 275.103 225.193C275.153 222.991 275.533 220.809 276.232 218.72C276.638 217.342 277.326 216.064 278.254 214.968C278.722 214.424 279.301 213.987 279.951 213.685C280.602 213.383 281.309 213.223 282.026 213.216C283.803 213.278 285.399 214.505 287.158 214.358C288.491 214.247 289.673 213.336 291.015 213.158C292.198 213.046 293.38 213.381 294.329 214.096C295.269 214.809 296.092 215.664 296.769 216.63C299.195 219.827 301.163 223.575 301.279 227.585C301.781 227.954 302.505 227.474 302.754 226.905C303.003 226.336 303.012 225.669 303.327 225.126C303.691 224.5 304.389 224.166 304.936 223.695C306.322 222.499 306.668 220.485 306.615 218.658C306.562 216.83 306.206 214.976 306.553 213.18C306.762 212.078 307.233 211.046 307.49 209.957C307.748 208.868 307.779 207.645 307.171 206.707C306.282 205.329 304.411 205.058 302.781 204.929C300.928 204.769 299.27 204.973 298.089 203.413C297.534 202.598 296.909 201.834 296.222 201.127C295.987 200.896 293.61 199.429 293.61 199.331Z" fill="#512E4E"/>
<path opacity="0.1" d="M245.316 293.087L240.672 284.497L239.202 297.75C239.202 297.75 240.019 303.637 239.855 304.539C239.69 305.442 243.205 313.533 243.205 313.533C243.205 313.533 254.815 334.225 259.556 335.292L275.574 323.839L271.327 318.442C271.327 318.442 269.856 317.868 269.487 318.442C269.487 318.442 261.6 304.864 260.783 303.881C259.965 302.899 260.125 300.938 260.125 300.938C260.125 300.938 258.899 299.631 259.307 298.404C259.716 297.177 256.939 292.922 256.939 292.922L259.472 290.552L245.316 293.087Z" fill="black"/>
<path d="M240.917 283.519L239.69 284.497L238.22 297.75C238.22 297.75 239.037 303.636 238.873 304.539C238.708 305.441 242.228 313.533 242.228 313.533C242.228 313.533 253.833 334.224 258.574 335.291L274.597 323.839L270.345 318.441C270.345 318.441 268.874 317.868 268.505 318.441C268.505 318.441 260.618 304.863 259.801 303.881C258.983 302.898 259.148 300.938 259.148 300.938C259.148 300.938 257.921 299.631 258.33 298.404C258.739 297.176 255.957 292.922 255.957 292.922L258.49 290.552L240.917 283.519Z" fill="white"/>
<path opacity="0.1" d="M317.017 335.439C317.905 336.519 317.345 341.37 317.345 341.37L314.893 345.433C314.893 345.433 315.039 348.056 315.048 351.591L310.925 352.88C310.552 352.996 310.157 353.022 309.773 352.955C309.388 352.887 309.025 352.729 308.714 352.493C308.403 352.256 308.154 351.949 307.985 351.597C307.817 351.244 307.736 350.856 307.748 350.466L308.459 327.521L318.079 331.202C317.261 331.771 318.159 333.167 318.159 333.167C318.159 333.167 316.119 334.358 317.017 335.439Z" fill="black"/>
<path d="M317.51 334.945C318.399 336.025 317.839 340.88 317.839 340.88L315.386 344.944C315.386 344.944 315.533 347.563 315.546 351.101L311.347 352.413C310.982 352.527 310.596 352.551 310.219 352.485C309.843 352.418 309.488 352.263 309.183 352.032C308.879 351.8 308.634 351.5 308.47 351.155C308.305 350.809 308.225 350.43 308.237 350.048L308.952 327.031L318.576 330.712C317.754 331.282 318.652 332.673 318.652 332.673C318.652 332.673 316.621 333.869 317.51 334.945Z" fill="white"/>
<path d="M320.696 324.008C320.696 324.008 320.043 328.182 318.407 328.427C316.772 328.671 316.039 335.18 314.409 334.949C312.778 334.718 313.858 328.898 313.915 327.769C313.973 326.64 312.138 321.963 313.511 320.9C314.884 319.837 319.229 320.9 319.229 320.9L320.696 324.008Z" fill="#CF6F80"/>
<path opacity="0.1" d="M324.175 291.859L327.259 285.635C327.259 285.635 328.485 290.379 328.485 292.913C328.485 295.447 330.2 295.696 330.2 295.696C330.2 295.696 332.08 297.919 331.089 299.537C330.098 301.155 329.698 305.183 329.698 305.183C329.698 305.183 330.022 312.87 328.552 313.933C327.081 314.996 326.774 317.534 326.774 317.534C326.774 317.534 324.073 322.358 324.157 323.505C324.242 324.652 320.398 332.419 320.398 332.419C320.398 332.419 322.278 322.767 311.325 318.597C311.325 318.597 311.241 315.32 312.058 314.422C312.876 313.524 314.151 313.115 313.351 308.576C312.551 304.036 313.12 298.612 313.12 297.523C313.12 296.434 315.573 289.641 315.573 289.641L324.175 291.859Z" fill="black"/>
<path d="M325.508 284.746L328.201 285.635C328.201 285.635 329.431 290.379 329.431 292.913C329.431 295.447 331.146 295.696 331.146 295.696C331.146 295.696 333.026 297.919 332.035 299.538C331.044 301.156 330.649 305.184 330.649 305.184C330.649 305.184 330.973 312.871 329.502 313.934C328.032 314.996 327.703 317.535 327.703 317.535C327.703 317.535 325.006 322.359 325.09 323.506C325.175 324.653 321.327 332.42 321.327 332.42C321.327 332.42 323.211 322.768 312.254 318.597C312.254 318.597 312.174 315.321 312.991 314.423C313.809 313.525 315.084 313.116 314.284 308.576C313.484 304.037 314.053 298.613 314.053 297.524C314.053 296.434 316.506 289.641 316.506 289.641L325.508 284.746Z" fill="white"/>
<path opacity="0.1" d="M266.035 446.075C266.035 446.075 270.327 443.376 273.144 445.337C275.961 447.298 266.035 446.075 266.035 446.075Z" fill="black"/>
<path opacity="0.1" d="M299.386 437.73C299.386 437.73 303.185 437.241 306.375 440.678C309.565 444.114 299.386 437.73 299.386 437.73Z" fill="black"/>
<g opacity="0.1">
<path d="M304.944 222.721C304.398 223.192 303.696 223.53 303.332 224.157C303.021 224.695 303.012 225.357 302.763 225.935C302.514 226.513 301.79 226.984 301.288 226.62C301.172 222.618 299.199 218.861 296.778 215.66C296.101 214.694 295.278 213.839 294.338 213.126C293.387 212.411 292.204 212.076 291.019 212.188C289.686 212.37 288.513 213.277 287.167 213.389C285.39 213.54 283.794 212.308 282.03 212.246C281.314 212.253 280.607 212.413 279.957 212.716C279.307 213.019 278.729 213.458 278.263 214.002C277.335 215.097 276.646 216.373 276.241 217.75C275.543 219.839 275.162 222.021 275.112 224.223C275.086 225.464 274.97 227.011 273.824 227.473C273.85 227.802 273.85 228.132 273.824 228.46C274.979 228.016 275.095 226.451 275.121 225.206C275.171 223.004 275.551 220.821 276.25 218.733C276.655 217.355 277.344 216.077 278.271 214.98C278.739 214.437 279.317 214 279.967 213.698C280.616 213.396 281.323 213.236 282.039 213.228C283.817 213.291 285.416 214.518 287.176 214.371C288.509 214.26 289.691 213.349 291.028 213.171C292.213 213.059 293.396 213.393 294.347 214.109C295.287 214.822 296.11 215.677 296.787 216.643C299.208 219.84 301.181 223.587 301.297 227.598C301.799 227.967 302.523 227.487 302.772 226.917C303.021 226.348 303.029 225.682 303.34 225.139C303.705 224.512 304.407 224.179 304.953 223.708C306.34 222.512 306.686 220.498 306.633 218.67C306.633 218.612 306.633 218.555 306.633 218.501C306.548 220.084 306.126 221.698 304.944 222.721Z" fill="black"/>
<path d="M272.144 222.405C271.122 221.28 269.727 220.529 268.79 219.337C268 218.283 267.549 217.013 267.497 215.696C267.357 217.342 267.816 218.982 268.79 220.316C269.727 221.512 271.122 222.263 272.144 223.388C273.125 224.488 273.715 225.883 273.819 227.353C273.887 226.458 273.774 225.559 273.486 224.708C273.198 223.858 272.742 223.075 272.144 222.405Z" fill="black"/>
<path d="M307.499 208.983C307.237 210.072 306.771 211.108 306.557 212.206C306.431 212.94 306.385 213.685 306.42 214.429C306.435 214.005 306.481 213.583 306.557 213.166C306.771 212.064 307.237 211.032 307.499 209.943C307.652 209.342 307.702 208.72 307.646 208.103C307.618 208.399 307.569 208.693 307.499 208.983Z" fill="black"/>
</g>
<path opacity="0.1" d="M185.976 464.152C209.887 464.152 229.271 461.037 229.271 457.194C229.271 453.351 209.887 450.236 185.976 450.236C162.064 450.236 142.68 453.351 142.68 457.194C142.68 461.037 162.064 464.152 185.976 464.152Z" fill="white"/>
<path d="M187.371 323.905H184.585V386.668H187.371V323.905Z" fill="#535461"/>
<path d="M204.877 386.478L204.704 389.306L204.455 393.307L204.353 394.97L204.109 398.971L204.002 400.634L203.753 404.635L200.945 450.015C200.823 451.967 199.962 453.8 198.537 455.139C197.112 456.479 195.231 457.225 193.276 457.226H178.675C176.721 457.225 174.84 456.479 173.416 455.139C171.992 453.799 171.132 451.967 171.011 450.015L168.216 404.604L167.967 400.603L167.865 398.94L167.616 394.939L167.514 393.276L167.265 389.274L167.087 386.447C167.056 385.903 167.137 385.358 167.324 384.846C167.511 384.334 167.801 383.866 168.175 383.47C168.55 383.074 169.001 382.759 169.502 382.544C170.002 382.328 170.541 382.218 171.086 382.219H200.949C201.492 382.223 202.028 382.339 202.524 382.559C203.021 382.779 203.466 383.099 203.835 383.498C204.203 383.897 204.485 384.367 204.664 384.88C204.844 385.392 204.916 385.936 204.877 386.478Z" fill="#3F3D56"/>
<path d="M204.704 389.306L204.455 393.294H167.496L167.247 389.306H204.704Z" fill="#9D9CB5"/>
<path d="M204.353 394.956L204.109 398.948H167.847L167.598 394.956H204.353Z" fill="#9D9CB5"/>
<path d="M204.002 400.615L203.758 404.603H168.198L167.949 400.615H204.002Z" fill="#9D9CB5"/>
<path d="M162.995 347.429C179.217 359.175 185.989 377.545 185.989 377.545C185.989 377.545 166.438 376.874 150.212 365.128C133.985 353.382 127.227 335.016 127.227 335.016C127.227 335.016 146.768 335.683 162.995 347.429Z" fill="white"/>
<path d="M127.213 335.016C127.213 335.016 147.51 346.286 154.02 355.618C160.529 364.95 185.989 377.545 185.989 377.545" stroke="#535461" stroke-width="2" stroke-miterlimit="10"/>
<path d="M173.468 323.768C182.297 330.156 185.989 340.155 185.989 340.155C185.989 340.155 175.347 339.791 166.514 333.402C157.681 327.013 153.997 317.01 153.997 317.01C153.997 317.01 164.635 317.374 173.468 323.768Z" fill="white"/>
<path d="M153.997 317.01C153.997 317.01 165.043 323.145 168.585 328.222C172.126 333.3 185.989 340.155 185.989 340.155" stroke="#535461" stroke-width="2" stroke-miterlimit="10"/>
<path d="M198.808 339.649C188.664 350.804 186.518 365.382 186.518 365.382C186.518 365.382 200.821 361.87 210.956 350.711C221.091 339.551 223.246 324.978 223.246 324.978C223.246 324.978 208.952 328.494 198.808 339.649Z" fill="white"/>
<path d="M223.255 324.981C223.255 324.981 210.041 336.416 206.681 344.295C203.322 352.173 186.518 365.382 186.518 365.382" stroke="#535461" stroke-width="2" stroke-miterlimit="10"/>
<path d="M571.181 335.723C571.181 335.723 563.845 299.204 566.654 294.661C566.654 294.661 566.756 290.437 566.587 285.053C566.587 284.848 566.587 284.644 566.587 284.435C567.081 284.765 567.596 285.062 568.129 285.324C570.716 286.654 573.686 287.038 576.526 286.409L574.305 283.933C573.772 283.341 573.216 282.701 573.101 281.919C572.985 281.136 573.305 280.438 573.581 279.74C575.691 274.405 575.802 267.696 571.737 263.624C568.302 260.2 567.467 255.781 563.739 252.655C561.015 250.366 559.518 247.009 558.105 243.764C556.909 241.021 555.705 238.255 555.021 235.347C554.488 233.076 554.275 230.724 553.541 228.505C552.808 226.287 551.435 224.13 549.289 223.139C548.525 222.788 547.676 222.588 546.979 222.121C546.063 221.503 545.512 220.498 544.85 219.618C541.487 215.172 530.223 217.791 524.891 219.596C523.442 220.05 522.099 220.794 520.946 221.783L520.994 221.703C521.034 221.636 521.083 221.57 521.128 221.503C520.544 221.975 520.04 222.538 519.635 223.17C518.857 224.402 518.533 225.838 517.884 227.171C517.102 228.75 512.752 233.156 514.623 234.93C514.754 235.049 514.904 235.145 515.067 235.214C515.769 235.507 516.543 235.584 517.289 235.436L517.209 235.628C516.57 237.193 516.242 238.868 516.245 240.558C516.245 247.863 522.265 253.785 529.699 253.785C531.096 253.786 532.486 253.572 533.818 253.149C533.849 253.318 533.875 253.487 533.907 253.656C533.907 253.722 533.929 253.789 533.938 253.856L533.702 254.185C533.69 254.165 533.677 254.145 533.662 254.127L526.686 263.881C525.62 264.633 519.479 269.079 519.133 272.413C518.768 276.063 518.404 280.336 518.404 280.336L518.355 281.252C518.05 281.507 517.694 281.692 517.31 281.796C516.927 281.899 516.525 281.919 516.133 281.852C513.956 281.496 513.956 289.854 513.956 289.854C513.956 289.854 512.508 291.188 511.512 290.032C510.517 288.876 507.887 292.793 507.887 292.793L491.402 293.505L491.025 293.527L490.136 290.775C490.04 290.485 489.834 290.244 489.562 290.105C489.29 289.966 488.974 289.94 488.683 290.032C488.614 290.055 488.547 290.083 488.483 290.117L488.421 290.152L488.305 290.232L488.247 290.286C488.216 290.315 488.186 290.346 488.159 290.379L488.105 290.441L488.079 290.468C487.976 290.61 487.908 290.774 487.88 290.947C487.853 291.12 487.866 291.297 487.919 291.464L488.683 293.825C485.502 294.465 482.249 296.27 484.902 301.241L471.456 298.755L475.806 302.41L498.263 307.047C497.965 307.58 498.16 308.354 499.089 309.443C503.088 314.143 510.375 315.419 513.308 315.748C514.082 317.481 515.049 319.122 516.191 320.638L515.938 325.32C515.938 325.32 508.513 361.003 507.154 362.812C507.84 362.034 508.468 361.206 509.033 360.336C506.878 367.667 503.866 377.701 503.075 379.204C501.804 381.605 500.626 391.319 502.075 391.942C502.519 392.133 503.79 392.04 505.603 391.902V392.706L505.523 423.201C505.523 423.201 505.887 441.905 504.888 443.688C503.888 445.471 503.621 449.21 503.621 449.21C503.621 449.21 499.622 456.585 496.454 459.551C496.433 459.574 496.409 459.595 496.383 459.613L496.285 458.92C496.285 458.92 492.477 463.73 484.053 463.459C484.053 463.459 478.983 466.758 486.501 466.936C494.019 467.113 503.621 466.669 503.621 466.669C503.621 466.669 510.326 456.443 515.942 457.777V465.526H517.662V457.652C518.459 457.127 519.142 456.445 519.668 455.648C520.194 454.851 520.553 453.955 520.723 453.015C520.871 452.046 520.763 451.056 520.411 450.141C520.058 449.227 519.474 448.42 518.715 447.8C518.374 447.492 518.101 447.116 517.912 446.697C517.723 446.278 517.623 445.824 517.618 445.364L517.555 445.417C517.555 445.262 517.515 445.102 517.498 444.937C517.004 440.936 516.387 432.68 518.568 426.571C521.559 418.195 522.465 406.529 520.288 399.584C519.585 397.364 519.008 395.107 518.559 392.822C518.506 392.533 518.457 392.257 518.413 392C519.901 392.201 521.375 392.498 522.825 392.889C527.868 394.28 538.901 394.538 548.321 394.463C548.343 394.72 548.369 394.992 548.401 395.263C548.568 397.148 548.92 399.012 549.449 400.829C550.631 404.386 551.173 420.067 551.173 420.067C551.173 420.067 552.697 432.96 551.866 438.206C551.422 441.122 550.978 444.052 550.724 446.996V447.053C550.724 447.053 548.227 454.167 546.401 458.03C546.357 458.128 546.308 458.226 546.263 458.319C545.776 458.364 545.297 458.47 544.837 458.635C544.837 458.635 542.389 463.525 539.949 464.335C537.51 465.144 538.319 467.807 543.842 466.829C549.365 465.851 557.705 465.05 557.705 465.05L558.065 460.062L559.762 457.937L559.318 462.912L561.126 462.556L560.886 456.505L563.663 453.029C563.663 453.029 567.018 450.041 562.033 444.164V444.292C561.979 444.208 561.93 444.119 561.873 444.035V444.008C561.046 442.727 560.389 440.34 561.593 436.103C563.77 428.447 565.036 421.498 565.036 421.498C565.036 421.498 569.897 402.883 564.054 394.076H564.312C563.713 392.836 563.29 391.52 563.054 390.163C563.025 390.003 562.998 389.839 562.974 389.67C567.298 389.421 571.541 388.638 575.002 386.949C574.989 386.931 572.905 342.756 571.181 335.723ZM516.293 304.913V305.002L515.405 305.046L516.293 304.913ZM513.245 305.335C513.099 305.368 512.962 305.433 512.845 305.526C512.463 306.067 512.224 306.696 512.148 307.354L510.762 307.042C510.762 307.042 509.788 306.833 508.389 306.598L507.727 305.931C509.549 305.78 511.441 305.557 513.245 305.335Z" fill="url(#paint1_linear_13_16)"/>
<path d="M559.113 456.568L558.584 462.868L560.357 462.512L560.091 455.679L559.113 456.568Z" fill="#1D2366"/>
<path d="M518.666 426.655C516.529 432.746 517.133 440.967 517.613 444.959C517.791 446.435 517.955 447.333 517.955 447.333C517.955 447.333 514.76 454.616 514.494 454.891C514.227 455.167 505.092 460.746 505.092 460.746L498.707 464.477C498.707 464.477 492.229 461.636 495.334 460.658C495.969 460.403 496.541 460.013 497.01 459.515C500.12 456.558 504.026 449.209 504.026 449.209C504.026 449.209 504.292 445.479 505.27 443.705C506.247 441.931 505.892 423.29 505.892 423.29L505.967 392.902V388.94L518.12 389.029C518.196 390.374 518.371 391.712 518.644 393.031C519.08 395.308 519.645 397.558 520.337 399.771C522.478 406.702 521.59 418.31 518.666 426.655Z" fill="#EE6D6F"/>
<path opacity="0.1" d="M517.955 447.333C517.955 447.333 514.76 454.615 514.494 454.891C514.227 455.167 505.092 460.746 505.092 460.746L498.707 464.476C498.707 464.476 492.229 461.636 495.334 460.657C495.969 460.403 496.541 460.013 497.01 459.515L497.285 461.458L499.413 461.369L517.631 444.968C517.791 446.435 517.955 447.333 517.955 447.333Z" fill="black"/>
<path d="M517.733 445.382L499.413 461.894L497.285 461.983L496.841 458.871C496.841 458.871 493.117 463.663 484.844 463.397C484.844 463.397 479.876 466.682 487.239 466.86C494.601 467.038 504.003 466.593 504.003 466.593C504.003 466.593 510.57 456.368 516.067 457.701V465.424H517.755V457.63C518.54 457.102 519.21 456.419 519.725 455.625C520.24 454.83 520.588 453.94 520.75 453.007C520.896 452.046 520.793 451.063 520.45 450.154C520.106 449.244 519.535 448.438 518.791 447.814C518.458 447.502 518.193 447.125 518.011 446.707C517.829 446.289 517.734 445.838 517.733 445.382Z" fill="#1D2366"/>
<path d="M560.802 436.152C559.62 440.375 560.264 442.754 561.073 444.03V444.057C562.11 445.632 562.831 447.394 563.197 449.245L563.268 449.645L554.932 461.805L550.409 463.583C550.409 463.583 543.135 461.098 544.464 460.386C544.797 460.213 545.317 459.288 545.912 458.012C547.69 454.167 550.142 447.071 550.142 447.071V447.013C550.4 444.083 550.809 441.162 551.262 438.255C552.075 433.022 550.582 420.178 550.582 420.178C550.582 420.178 550.049 404.559 548.894 401.007C548.372 399.201 548.026 397.349 547.859 395.476C547.619 393.253 547.565 391.421 547.565 391.421C547.565 391.421 552.355 384.752 561.135 391.955C561.837 392.529 562.455 393.2 562.97 393.947C569.035 402.581 564.152 421.6 564.152 421.6C564.152 421.6 562.93 428.518 560.802 436.152Z" fill="#EE6D6F"/>
<path opacity="0.1" d="M563.281 449.646L554.945 461.805L550.422 463.584C550.422 463.584 543.149 461.098 544.477 460.387C544.81 460.214 545.33 459.289 545.926 458.013C549.005 457.986 550.6 460.921 550.6 460.921L554.501 460.298C554.501 460.298 559.646 450.179 560.802 449.561C561.957 448.943 560.979 444.942 560.979 444.942V443.924C561.01 443.959 561.037 443.999 561.073 444.035V444.062C562.11 445.637 562.831 447.399 563.197 449.25L563.281 449.646Z" fill="black"/>
<path d="M550.866 461.183C550.866 461.183 548.645 457.101 544.388 458.609C544.388 458.609 541.993 463.499 539.598 464.291C537.203 465.082 538.003 467.749 543.415 466.776C548.827 465.802 556.985 464.997 556.985 464.997L557.34 460.022L562.841 453.011C562.841 453.011 566.12 450.037 561.241 444.182V445.2C561.241 445.2 562.219 449.201 561.064 449.819C559.908 450.437 554.781 460.56 554.781 460.56L550.866 461.183Z" fill="#1D2366"/>
<path opacity="0.1" d="M518.133 389.021C518.21 390.365 518.385 391.703 518.657 393.022C513.654 392.288 509.011 392.653 505.967 392.893V388.932L518.133 389.021Z" fill="black"/>
<path opacity="0.1" d="M563.463 395.054C563.463 395.054 556.354 395.401 547.876 395.472C547.636 393.249 547.583 391.417 547.583 391.417C547.583 391.417 552.373 384.749 561.153 391.951C561.855 392.525 562.473 393.196 562.988 393.943C563.126 394.322 563.284 394.693 563.463 395.054Z" fill="black"/>
<path d="M563.463 394.253C563.463 394.253 532.325 395.76 522.834 393.097C513.343 390.434 503.937 392.741 502.519 392.123C501.102 391.505 502.253 381.827 503.497 379.43C504.741 377.034 511.566 352.799 511.566 352.799L518.133 318.539L525.051 316.632L525.54 316.494L537.594 313.168L546.428 310.728C546.428 310.728 563.992 379.341 562.486 384.401C561.939 386.338 561.85 388.377 562.228 390.354C562.458 391.704 562.874 393.017 563.463 394.253Z" fill="#1D2366"/>
<path d="M495.241 295.109C495.241 295.109 489.02 301.778 493.73 305.495C498.44 309.212 501.537 305.851 501.537 305.851L495.241 295.109Z" fill="#C7DAF5"/>
<path opacity="0.1" d="M495.241 295.109C495.241 295.109 489.02 301.778 493.73 305.495C498.44 309.212 501.537 305.851 501.537 305.851L495.241 295.109Z" fill="black"/>
<path d="M545.499 251.263C545.499 251.263 544.77 251.957 543.673 252.98C542.109 254.442 539.794 256.581 537.741 258.372C534.897 260.849 532.551 262.667 533.391 261.116C534.231 259.564 534.071 256.861 533.653 254.331C533.622 254.162 533.595 253.993 533.564 253.829C533.219 251.971 532.76 250.136 532.191 248.334C532.191 248.334 536.786 242.394 539.327 240.051C540.274 239.162 540.936 238.797 540.976 239.415C541.02 240.246 541.642 242.083 542.415 244.03C542.438 244.092 542.46 244.15 542.487 244.212C543.002 245.546 543.584 246.915 544.095 248.098C544.877 249.912 545.499 251.263 545.499 251.263Z" fill="#EE6D6F"/>
<path opacity="0.1" d="M542.487 244.213C542.055 246.536 541.007 248.701 539.453 250.481C537.899 252.261 535.896 253.591 533.653 254.332C533.3 252.302 532.812 250.299 532.191 248.334C532.191 248.334 540.842 237.153 540.976 239.416C541.007 240.274 541.682 242.177 542.487 244.213Z" fill="black"/>
<path opacity="0.1" d="M532.791 257.32L533.911 255.741C533.911 255.741 534.653 260.267 537.381 258.271C540.109 256.275 540.243 273.294 540.243 273.294L537.314 317.099L516.156 315.832L516.755 294.665L519.15 283.995L525.073 268.483L528.597 263.357L532.791 257.32Z" fill="black"/>
<path d="M540.243 273.565L537.577 313.174L537.297 317.371L525.5 316.664L525.056 316.637L516.169 316.104L516.769 294.932L519.164 284.262L525.087 268.75L528.61 263.624L532.805 257.564L533.924 255.99C533.924 255.99 534.666 260.516 537.394 258.52L537.452 258.48C540.118 256.79 540.243 273.565 540.243 273.565Z" fill="#1D2366"/>
<path d="M519.461 280.554C519.461 280.554 518.4 282.777 516.267 282.417C514.134 282.056 514.138 290.419 514.138 290.419C514.138 290.419 512.721 291.753 511.743 290.597C510.766 289.441 508.189 293.349 508.189 293.349L492.042 294.06C492.042 294.06 499.227 297.346 497.818 307.287C497.818 307.287 522.212 305.775 523.012 303.468C523.811 301.161 519.461 280.554 519.461 280.554Z" fill="white"/>
<path opacity="0.03" d="M519.461 280.554C519.461 280.554 518.4 282.777 516.267 282.417C514.134 282.056 514.138 290.419 514.138 290.419C514.138 290.419 512.721 291.753 511.743 290.597C510.766 289.441 508.189 293.349 508.189 293.349L492.042 294.06C492.042 294.06 499.227 297.346 497.818 307.287C497.818 307.287 522.212 305.775 523.012 303.468C523.811 301.161 519.461 280.554 519.461 280.554Z" fill="black"/>
<path d="M472.536 299.284L476.793 302.921L511.832 310.288L507.487 305.851L472.536 299.284Z" fill="white"/>
<path d="M532.858 258.719C532.276 259.609 530.61 264.161 529.219 268.136C528.059 271.448 527.091 274.36 527.091 274.36C527.091 274.36 524.829 289.094 523.674 291.757C522.518 294.42 523.145 304.806 523.145 304.806L518.839 330.454C518.839 330.454 516.889 343.681 513.876 351.581C510.904 359.357 507.593 363.003 507.491 363.119C508.824 361.313 516.089 325.773 516.089 325.773L518.488 280.949C518.488 280.949 518.839 276.69 519.195 273.049C519.55 269.407 526.748 264.437 526.748 264.437L533.689 254.562C534.386 255.496 533.92 257.123 532.858 258.719Z" fill="white"/>
<path d="M514.76 316.325C514.76 316.325 504.541 315.881 499.591 309.932C494.641 303.984 511.033 307.558 511.033 307.558L515.294 308.536L514.76 316.325Z" fill="#EE6D6F"/>
<path opacity="0.1" d="M562.486 384.406C561.939 386.343 561.85 388.381 562.228 390.359C551.08 391.15 539.154 388.136 539.154 388.136C536.932 390.181 531.081 393.195 531.081 393.195L527.89 353.627C525.851 348.292 525.051 320.34 525.051 320.34C525.051 320.34 525.233 318.877 525.495 316.686C525.495 316.632 525.495 316.574 525.518 316.521C526.313 310.399 527.89 298.906 528.663 297.355C529.73 295.221 525.384 289.543 525.384 289.543L527.362 272.671L527.601 270.635C531.769 268.772 534.964 262.823 534.964 262.823L537.417 258.524C540.083 256.812 540.22 273.587 540.22 273.587L537.554 313.195L546.388 310.755C546.388 310.755 563.992 379.346 562.486 384.406Z" fill="black"/>
<path d="M573.927 387.14C561.775 393.177 539.687 387.584 539.687 387.584C537.466 389.63 531.614 392.644 531.614 392.644L528.419 353.075C526.384 347.74 525.584 319.789 525.584 319.789C525.584 319.789 528.152 298.933 529.219 296.803C529.53 296.181 529.379 295.256 529.01 294.26C527.197 289.52 526.53 284.418 527.064 279.371L527.917 272.119L528.152 270.088C532.325 268.22 535.519 262.272 535.519 262.272L537.741 258.377L541.829 251.201L543.766 247.805L544.095 248.103L546.605 250.379C546.605 250.379 547.672 251.268 549.271 252.602C552.75 255.536 558.762 260.702 561.864 263.863C564.592 266.646 565.454 277.472 565.703 285.622C565.867 290.988 565.769 295.194 565.769 295.194C563.019 299.724 570.213 336.096 570.213 336.096C571.888 343.125 573.927 387.14 573.927 387.14Z" fill="white"/>
<path opacity="0.03" d="M550.6 262.183C550.6 262.183 542.26 278.068 543.229 284.106C544.197 290.143 546.952 296.977 545.623 298.573C545.167 299.177 544.577 299.668 543.899 300.007C543.222 300.345 542.475 300.522 541.718 300.524C540.385 300.613 536.83 303.099 536.83 303.365C536.83 303.632 533.547 303.632 530.61 304.877C527.673 306.122 523.336 306.829 523.336 306.829C523.336 306.829 514.894 306.562 514.107 307.362C513.321 308.162 512.512 312.951 514.196 316.77C515.88 320.589 517.751 323.439 519.164 323.959C520.577 324.479 529.543 321.474 536.817 320.762C544.091 320.051 551.986 314.285 551.986 314.285C551.986 314.285 560.682 311.172 562.206 305.939C563.73 300.707 560.344 271.946 560.344 271.946C560.344 271.946 557.785 258.542 550.6 262.183Z" fill="black"/>
<path opacity="0.03" d="M549.534 260.849C549.534 260.849 541.194 276.739 542.171 282.772C543.149 288.805 545.895 295.643 544.562 297.244C544.107 297.849 543.518 298.341 542.841 298.679C542.164 299.018 541.417 299.195 540.66 299.196C539.327 299.284 535.773 301.77 535.773 302.036C535.773 302.303 532.489 302.303 529.552 303.544C526.615 304.784 522.279 305.495 522.279 305.495C522.279 305.495 513.836 305.229 513.054 306.029C512.272 306.829 511.455 311.622 513.143 315.437C514.832 319.251 516.698 322.105 518.111 322.626C519.524 323.146 528.49 320.14 535.764 319.433C543.038 318.726 550.933 312.951 550.933 312.951C550.933 312.951 559.624 309.839 561.131 304.611C562.637 299.382 559.269 270.613 559.269 270.613C559.269 270.613 556.718 257.213 549.534 260.849Z" fill="black"/>
<path d="M550.338 261.383C550.338 261.383 541.998 277.272 542.975 283.305C543.953 289.339 546.699 296.176 545.37 297.772C544.915 298.379 544.326 298.872 543.648 299.211C542.97 299.551 542.222 299.728 541.464 299.729C540.131 299.818 536.577 302.303 536.577 302.565C536.577 302.827 533.298 302.832 530.356 304.077C527.415 305.322 523.083 306.029 523.083 306.029C523.083 306.029 514.64 305.762 513.854 306.562C513.067 307.362 512.259 312.155 513.943 315.97C515.627 319.784 517.497 322.639 518.91 323.159C520.323 323.679 529.29 320.673 536.563 319.962C543.837 319.251 551.733 313.484 551.733 313.484C551.733 313.484 560.428 310.372 561.952 305.139C563.476 299.907 560.113 271.146 560.113 271.146C560.113 271.146 557.518 257.764 550.338 261.383Z" fill="white"/>
<path opacity="0.1" d="M550.156 304.001C550.156 304.001 543.491 302.668 545.81 304.891C548.129 307.113 548.116 309.061 550.955 308.972C553.795 308.883 550.156 304.001 550.156 304.001Z" fill="black"/>
<path opacity="0.1" d="M561.419 351.83C561.419 351.83 558.407 353.871 564.17 358.575C569.933 363.278 561.419 351.83 561.419 351.83Z" fill="black"/>
<path opacity="0.1" d="M555.67 368.605C555.67 368.872 554.603 378.386 558.593 380.765C562.583 383.144 555.67 368.605 555.67 368.605Z" fill="black"/>
<path d="M492.317 294.038C489.1 294.149 482.151 295.132 485.755 301.858C488.94 307.812 494.295 303.832 497.307 300.814C496.572 297.999 494.786 295.574 492.317 294.038Z" fill="#EE6D6F"/>
<path d="M497.347 300.76L497.48 300.622L497.347 300.76Z" fill="#EE6D6F"/>
<path opacity="0.1" d="M549.271 252.873C545.859 255.208 542.997 257.177 542.438 257.586C540.909 258.72 537.994 265.375 536.115 268.772C534.617 271.506 529.752 272.209 527.917 272.382L528.152 270.35C532.325 268.483 535.519 262.534 535.519 262.534L543.766 248.067L546.605 250.65C546.605 250.65 547.672 251.54 549.271 252.873Z" fill="black"/>
<path d="M549.271 252.607C545.859 254.941 542.997 256.91 542.438 257.324C540.909 258.453 537.994 265.109 536.115 268.505C534.617 271.24 529.752 271.942 527.917 272.116L528.152 270.084C532.325 268.216 535.519 262.268 535.519 262.268L543.766 247.801L546.605 250.375C546.605 250.375 547.672 251.255 549.271 252.607Z" fill="#DCE7FF"/>
<path d="M542.704 241.278C542.706 243.947 541.897 246.553 540.385 248.752C538.599 251.351 535.94 253.223 532.893 254.029C529.845 254.835 526.609 254.521 523.773 253.144C520.936 251.767 518.687 249.419 517.434 246.525C516.18 243.63 516.005 240.382 516.94 237.37C517.874 234.357 519.858 231.78 522.529 230.105C525.201 228.431 528.384 227.77 531.501 228.243C534.618 228.716 537.462 230.291 539.518 232.682C541.573 235.074 542.704 238.124 542.704 241.278Z" fill="#EE6D6F"/>
<path opacity="0.1" d="M565.703 285.626C563.898 284.516 562.429 282.936 561.45 281.056C560.708 279.589 560.215 277.895 558.949 276.854C557.807 275.921 556.283 275.694 554.861 275.276C550.187 273.893 546.268 269.625 546.121 264.753C546.05 262.458 546.765 260.169 546.441 257.897C546.257 256.611 545.746 255.394 544.957 254.362C544.565 253.869 544.136 253.407 543.673 252.98C543.051 252.393 542.398 251.824 541.829 251.201C541.471 250.816 541.158 250.391 540.896 249.934C540.684 249.561 540.513 249.166 540.385 248.756C539.496 246.035 540.305 242.808 539.327 240.056L539.274 239.904C538.905 238.926 538.154 237.948 537.11 237.873C536.066 237.797 535.173 238.664 534.178 239.051C532.094 239.86 529.845 238.482 528.108 237.077C526.371 235.672 524.411 234.067 522.203 234.378C520.741 234.587 519.586 235.583 518.24 236.099C517.936 236.216 517.622 236.307 517.302 236.37C518.441 233.527 520.535 231.169 523.222 229.703C525.91 228.236 529.024 227.752 532.03 228.333C535.036 228.915 537.745 230.525 539.693 232.888C541.641 235.251 542.706 238.219 542.704 241.283C542.706 242.208 542.609 243.13 542.415 244.035C542.438 244.097 542.46 244.155 542.486 244.217C543.002 245.551 543.584 246.92 544.095 248.103L546.605 250.379C546.605 250.379 547.672 251.268 549.271 252.602C552.75 255.536 558.762 260.702 561.864 263.863C564.592 266.655 565.445 277.477 565.703 285.626Z" fill="black"/>
<path d="M518.084 227.976C518.719 226.682 519.035 225.233 519.795 224.005C520.91 222.227 522.856 221.089 524.856 220.4C530.076 218.599 541.109 215.985 544.406 220.4C545.055 221.289 545.592 222.276 546.49 222.89C547.174 223.356 548.001 223.556 548.751 223.908C550.853 224.895 552.195 227.046 552.91 229.243C553.626 231.439 553.839 233.795 554.363 236.058C555.034 238.962 556.212 241.714 557.385 244.448C558.767 247.676 560.233 251.023 562.899 253.304C566.538 256.416 567.342 260.822 570.719 264.237C574.718 268.291 574.589 274.982 572.527 280.295C572.256 280.993 571.95 281.722 572.056 282.465C572.163 283.207 572.714 283.883 573.234 284.474L575.42 286.942C570.248 288.191 564.396 285.488 561.988 280.744C561.246 279.277 560.753 277.588 559.482 276.543C558.345 275.609 556.816 275.387 555.399 274.969C550.724 273.582 546.805 269.309 546.659 264.437C546.588 262.147 547.303 259.857 546.979 257.59C546.798 256.296 546.285 255.07 545.49 254.033C544.268 252.437 542.424 251.366 541.429 249.587C539.745 246.613 541.025 242.749 539.812 239.557C539.438 238.579 538.692 237.601 537.648 237.526C536.604 237.45 535.71 238.317 534.711 238.704C532.631 239.513 530.383 238.139 528.646 236.73C526.908 235.32 524.949 233.72 522.736 234.035C521.274 234.24 520.123 235.236 518.777 235.756C517.782 236.138 515.765 236.481 514.894 235.64C513.054 233.947 517.315 229.558 518.084 227.976Z" fill="#591D4B"/>
<path opacity="0.1" d="M563.223 279.278C562.477 277.811 561.988 276.121 560.717 275.081C559.58 274.147 558.051 273.92 556.629 273.502C551.96 272.12 548.041 267.847 547.89 262.975C547.818 260.685 548.534 258.391 548.214 256.123C548.028 254.837 547.515 253.62 546.725 252.589C545.499 250.993 543.655 249.921 542.664 248.143C540.98 245.173 542.26 241.31 541.042 238.113C540.674 237.139 539.923 236.161 538.883 236.081C537.843 236.001 536.941 236.877 535.946 237.264C533.867 238.073 531.614 236.695 529.881 235.29C528.148 233.885 526.18 232.28 523.971 232.591C522.51 232.8 521.354 233.796 520.012 234.312C519.017 234.694 516.995 235.041 516.125 234.201C514.294 232.422 518.555 228.043 519.319 226.469C519.955 225.171 520.27 223.726 521.034 222.499C521.074 222.432 521.119 222.366 521.163 222.299C520.592 222.773 520.098 223.334 519.701 223.962C518.942 225.189 518.626 226.629 517.991 227.932C517.222 229.506 512.961 233.898 514.796 235.663C515.685 236.508 517.684 236.161 518.679 235.779C520.012 235.259 521.177 234.263 522.638 234.058C524.86 233.743 526.815 235.348 528.548 236.753C530.281 238.157 532.547 239.536 534.617 238.726C535.613 238.34 536.484 237.468 537.55 237.548C538.616 237.628 539.327 238.602 539.714 239.58C540.927 242.772 539.647 246.636 541.331 249.61C542.327 251.357 544.171 252.451 545.392 254.056C546.188 255.093 546.7 256.318 546.881 257.613C547.205 259.88 546.49 262.17 546.561 264.459C546.708 269.35 550.627 273.605 555.301 274.992C556.709 275.41 558.247 275.632 559.384 276.566C560.66 277.611 561.162 279.3 561.89 280.767C564.299 285.511 570.15 288.214 575.322 286.965L574.292 285.8C569.808 285.867 565.272 283.315 563.223 279.278Z" fill="black"/>
<path opacity="0.1" d="M532.591 258.987C532.009 259.876 530.343 264.428 528.952 268.403C527.65 267.896 526.469 264.664 526.469 264.664L533.409 254.785C534.12 255.763 533.653 257.386 532.591 258.987Z" fill="black"/>
<path d="M532.858 258.719C532.276 259.609 530.61 264.161 529.219 268.136C527.917 267.633 526.735 264.397 526.735 264.397L533.676 254.522C534.386 255.496 533.92 257.123 532.858 258.719Z" fill="#DCE7FF"/>
<path d="M492.504 304.139L488.656 291.997C488.611 291.855 488.594 291.705 488.606 291.557C488.618 291.408 488.66 291.263 488.729 291.131C488.797 290.998 488.891 290.88 489.005 290.784C489.119 290.688 489.251 290.615 489.394 290.57C489.68 290.481 489.99 290.508 490.256 290.646C490.523 290.785 490.724 291.023 490.816 291.308L494.663 303.437L494.281 305.975L492.504 304.139Z" fill="#BE8B87"/>
<path opacity="0.1" d="M489.02 290.93C489.307 290.839 489.619 290.866 489.886 291.004C490.153 291.143 490.355 291.381 490.447 291.668L494.295 303.797L494.006 305.7L494.286 305.993L494.668 303.454L490.798 291.326C490.706 291.04 490.505 290.802 490.239 290.664C489.972 290.526 489.662 290.498 489.376 290.588C489.135 290.666 488.927 290.823 488.785 291.032C488.86 290.992 488.939 290.958 489.02 290.93Z" fill="white"/>
<path d="M492.504 304.139L494.663 303.454L494.348 305.535L494.281 305.993L493.65 305.335L492.504 304.139Z" fill="#EFC8C4"/>
<path d="M493.65 305.335C493.688 305.288 493.735 305.248 493.788 305.22C493.819 305.2 493.856 305.189 493.893 305.189C493.93 305.189 493.966 305.2 493.997 305.22C494.027 305.256 494.053 305.297 494.073 305.34C494.102 305.389 494.142 305.431 494.19 305.462C494.237 305.494 494.291 305.514 494.348 305.522L494.281 305.967L493.65 305.335Z" fill="#727A9C"/>
<path d="M488.634 296.31C488.634 296.31 496.352 296.265 494.535 299.551C492.717 302.836 489.878 303.232 489.878 303.232L488.634 296.31Z" fill="#EE6D6F"/>
<path d="M440.633 148.861H440.3C427.041 148.861 415.315 155.881 408.57 166.24C401.826 155.881 390.1 148.861 376.841 148.861H376.508C366.557 148.956 357.047 152.976 350.042 160.048C343.037 167.12 339.105 176.673 339.1 186.629C339.1 198.994 344.512 216.537 355.065 230.973C375.17 258.48 408.57 282.546 408.57 282.546C408.57 282.546 441.971 258.484 462.072 230.973C472.629 216.537 478.037 198.994 478.037 186.629C478.031 176.674 474.1 167.122 467.096 160.05C460.092 152.978 450.583 148.957 440.633 148.861ZM435.866 233.089C434.356 233.084 432.883 232.621 431.64 231.763C430.397 230.904 429.443 229.69 428.903 228.279H420.976C420.454 228.276 419.946 228.109 419.523 227.803C419.1 227.497 418.783 227.067 418.617 226.572L416.182 219.231L408.477 246.169C408.327 246.688 408.013 247.144 407.582 247.468C407.151 247.793 406.626 247.969 406.087 247.97H405.931C405.368 247.943 404.832 247.723 404.411 247.347C403.991 246.972 403.712 246.463 403.621 245.907L395.681 198.122L389.878 226.398C389.745 226.935 389.436 227.412 389 227.753C388.564 228.094 388.027 228.279 387.474 228.279H376.308C375.973 228.293 375.639 228.239 375.326 228.121C375.012 228.002 374.726 227.822 374.484 227.59C374.242 227.358 374.05 227.079 373.918 226.771C373.787 226.463 373.719 226.131 373.719 225.796C373.719 225.461 373.787 225.129 373.918 224.82C374.05 224.512 374.242 224.234 374.484 224.002C374.726 223.77 375.012 223.589 375.326 223.471C375.639 223.352 375.973 223.299 376.308 223.313H385.519L393.739 185.296C393.874 184.734 394.2 184.236 394.661 183.888C395.122 183.539 395.689 183.362 396.267 183.386C396.844 183.41 397.395 183.634 397.825 184.02C398.256 184.406 398.539 184.929 398.626 185.5L406.735 234.245L413.64 210.144C413.784 209.636 414.088 209.189 414.507 208.868C414.926 208.548 415.437 208.371 415.964 208.366H416.013C416.535 208.366 417.044 208.531 417.467 208.837C417.89 209.144 418.205 209.576 418.368 210.073L422.771 223.326H428.805C429.234 222.022 430.015 220.862 431.061 219.974C432.108 219.085 433.379 218.504 434.735 218.293C436.091 218.082 437.479 218.25 438.745 218.778C440.011 219.307 441.107 220.175 441.912 221.287C442.716 222.4 443.198 223.713 443.304 225.082C443.409 226.451 443.135 227.822 442.511 229.045C441.887 230.268 440.937 231.294 439.767 232.011C438.597 232.728 437.251 233.107 435.879 233.107L435.866 233.089Z" fill="white"/>
</g>
<ellipse rx="30.7267" ry="6.4115" transform="matrix(-0.164863 -0.986317 0.955013 -0.296564 63.1008 32.5716)" fill="#FF6565"/>
<ellipse rx="10.5172" ry="9.93067" transform="matrix(0.336959 -0.941519 0.7652 0.643792 45.6907 99.0175)" fill="#EA6E6E"/>
<ellipse cx="36.9869" cy="62.9458" rx="27.5" ry="8" transform="rotate(-136.823 36.9869 62.9458)" fill="#EA6E6E"/>
<ellipse rx="30.7267" ry="6.4115" transform="matrix(0.920403 -0.390972 0.511699 0.859165 699.476 82.4542)" fill="#FF6565"/>
<ellipse rx="10.5172" ry="9.93067" transform="matrix(0.994215 0.107409 -0.44697 0.894549 630.801 81.0668)" fill="#EA6E6E"/>
<ellipse cx="663.837" cy="64.1681" rx="27.5" ry="8" transform="rotate(-60.3488 663.837 64.1681)" fill="#EA6E6E"/>
<ellipse cx="33.1651" cy="547.548" rx="23" ry="7" transform="rotate(179.896 33.1651 547.548)" fill="#FF6565"/>
<ellipse cx="77.2594" cy="578.46" rx="8.5" ry="9.5" transform="rotate(-138.442 77.2594 578.46)" fill="#EA6E6E"/>
<ellipse cx="35.3587" cy="581.859" rx="27.5" ry="8" transform="rotate(145.718 35.3587 581.859)" fill="#EA6E6E"/>
<ellipse rx="18.4892" ry="4.63539" transform="matrix(0.898456 0.439063 -0.419306 0.907845 603.029 629.949)" fill="#D65E5E"/>
<ellipse rx="27.2953" ry="5.22669" transform="matrix(0.642362 0.766401 -0.842822 0.538192 580.422 643.351)" fill="#F47E7E"/>
<defs>
<linearGradient id="paint0_linear_13_16" x1="285.327" y1="470.501" x2="285.327" y2="196.925" gradientUnits="userSpaceOnUse">
<stop stop-color="#808080" stop-opacity="0.25"/>
<stop offset="0.54" stop-color="#808080" stop-opacity="0.12"/>
<stop offset="1" stop-color="#808080" stop-opacity="0.1"/>
</linearGradient>
<linearGradient id="paint1_linear_13_16" x1="523.976" y1="467.042" x2="523.976" y2="217.181" gradientUnits="userSpaceOnUse">
<stop stop-color="#808080" stop-opacity="0.25"/>
<stop offset="0.54" stop-color="#808080" stop-opacity="0.12"/>
<stop offset="1" stop-color="#808080" stop-opacity="0.1"/>
</linearGradient>
<clipPath id="clip0_13_16">
<rect width="491" height="348" fill="white" transform="translate(127 126)"/>
</clipPath>
</defs>
</svg>
