<svg width="517" height="447" viewBox="0 0 517 447" fill="none" xmlns="http://www.w3.org/2000/svg">
<path d="M516.5 192.5C516.5 315.659 376.264 446 252 446C127.736 446 0 450.159 0 327C0 203.84 127.736 0 252 0C376.264 0 516.5 69.3405 516.5 192.5Z" fill="#F0D9D9"/>
<path d="M495 194.955C495 308.169 366.032 427.985 251.752 427.985C137.472 427.985 20 431.808 20 318.594C20 205.38 137.472 18 251.752 18C366.032 18 495 81.7411 495 194.955Z" fill="#EFB2B2"/>
<path d="M470 197.965C470 299.029 354.879 405.986 252.869 405.986C150.86 405.986 46 409.4 46 308.335C46 207.271 150.86 40 252.869 40C354.879 40 470 96.9006 470 197.965Z" fill="#FA9494"/>
<path d="M379.3 161.058L351.297 161.305C349.981 155.458 345.559 140.116 349.541 135.931C349.723 134.356 350.571 132.905 351.908 131.88C353.246 130.855 354.97 130.334 356.721 130.427C361.062 124.297 368.291 125.217 373.177 129.046C378.094 130.577 379.948 133.297 379.3 136.988C382.942 139.865 383.613 143.365 381.979 147.348L379.3 161.058Z" fill="#2F2E41"/>
<path d="M376.604 176.624L356.401 174.1L352.36 168.771C357.926 165.439 359.896 160.786 357.333 154.467L371.32 154.187C370.665 159.814 372.727 164.171 378.469 166.808L376.604 176.624Z" fill="#FFB9B9"/>
<path d="M351.625 341.058L350.852 350.588C350.817 351.019 350.885 351.452 351.051 351.858C351.216 352.264 351.476 352.633 351.813 352.941C352.15 353.248 352.556 353.488 353.003 353.642C353.451 353.797 353.93 353.863 354.409 353.837L359.833 353.541C360.084 353.527 360.329 353.463 360.55 353.354C360.771 353.246 360.963 353.094 361.112 352.911C361.261 352.728 361.363 352.517 361.412 352.294C361.46 352.071 361.454 351.841 361.393 351.621L358.382 340.753L351.625 341.058Z" fill="#E6E6E6"/>
<path d="M369.186 340.753L366.175 351.621C366.114 351.841 366.108 352.071 366.156 352.294C366.205 352.517 366.307 352.728 366.456 352.911C366.605 353.094 366.796 353.246 367.018 353.354C367.239 353.463 367.483 353.527 367.735 353.541L373.159 353.837C373.638 353.863 374.117 353.797 374.565 353.642C375.012 353.488 375.418 353.248 375.755 352.941C376.092 352.633 376.352 352.264 376.517 351.858C376.683 351.452 376.751 351.019 376.716 350.588L375.943 341.058L369.186 340.753Z" fill="#E6E6E6"/>
<path d="M376.293 342.381L368.973 341.718L361.685 271.422L358.931 341.491L351.738 341.259L339.617 244.217H385.928L376.293 342.381Z" fill="white"/>
<path d="M365.104 158.955C372.829 158.955 379.091 153.304 379.091 146.334C379.091 139.364 372.829 133.713 365.104 133.713C357.379 133.713 351.117 139.364 351.117 146.334C351.117 153.304 357.379 158.955 365.104 158.955Z" fill="#FFB9B9"/>
<path d="M392.766 246.461L336.198 247.022C344.593 218.183 349.615 191.395 340.86 172.978L354.847 166.808C361.591 173.155 369.102 172.501 377.226 166.247L390.591 169.332C388.302 193.482 389.328 219.348 392.766 246.461Z" fill="white"/>
<path d="M320.657 216.731L355.78 229.352L363.632 231.436C363.983 231.53 364.352 231.558 364.715 231.519C365.079 231.481 365.43 231.376 365.748 231.212C366.066 231.048 366.343 230.828 366.564 230.564C366.785 230.301 366.945 230 367.034 229.679C367.189 229.117 367.12 228.524 366.836 228.004C366.553 227.484 366.075 227.071 365.487 226.839L357.334 224.584L332.779 211.683L337.908 199.483L327.184 194.294L320.657 216.731Z" fill="#FFB9B9"/>
<path d="M320.968 193.733C327.65 196.086 332.965 200.1 337.13 205.513L350.185 188.404L340.86 172.979L320.968 193.733Z" fill="white"/>
<path d="M380.868 144.288C375.191 142.968 369.61 142.787 364.184 144.461C360.728 145.972 356.578 145.833 351.962 144.588V131.996L376.881 132.596L380.868 144.288Z" fill="#2F2E41"/>
<path d="M355.663 202.026C354.565 202.027 353.512 202.422 352.735 203.122C351.959 203.823 351.522 204.773 351.521 205.764L353.156 236.651C353.157 237.642 353.594 238.592 354.37 239.293C355.147 239.993 356.2 240.388 357.298 240.389H375.993C377.091 240.388 378.144 239.993 378.921 239.293C379.697 238.592 380.134 237.642 380.135 236.651L381.771 205.764C381.769 204.773 381.332 203.823 380.556 203.122C379.779 202.422 378.726 202.027 377.628 202.026H355.663Z" fill="#110E38"/>
<path d="M408.705 214.398L378.091 225.397L375.781 226.227C375.708 226.253 375.634 226.275 375.557 226.297L367.818 228.352C366.829 228.614 365.46 227.411 364.658 226.581C364.262 226.181 364.037 225.666 364.025 225.13C364.013 224.593 364.214 224.07 364.593 223.656C364.7 223.545 364.818 223.443 364.945 223.35C365.243 223.141 365.594 223.001 365.966 222.944L373.697 221.572C373.974 221.523 374.24 221.433 374.486 221.307L378.091 219.411L396.809 209.577C397.33 209.304 397.726 208.873 397.927 208.361C398.129 207.849 398.122 207.289 397.909 206.781L394.336 198.278C394.117 197.758 394.115 197.184 394.331 196.662C394.547 196.141 394.966 195.708 395.509 195.445L401.428 192.583C401.767 192.419 402.142 192.327 402.525 192.312C402.909 192.298 403.291 192.363 403.643 192.502C403.995 192.64 404.307 192.849 404.557 193.112C404.806 193.375 404.986 193.686 405.083 194.021L410.221 211.683C410.379 212.224 410.312 212.799 410.033 213.3C409.754 213.8 409.281 214.19 408.705 214.398Z" fill="#FFB9B9"/>
<path d="M410.483 190.648C403.801 193 398.486 197.015 394.32 202.427L381.266 185.319L390.591 169.332L410.483 190.648Z" fill="white"/>
<path d="M374.412 157.567C368.293 159.864 361.877 159.771 355.199 157.567C357.143 154.574 354.238 152.23 352.747 149.209L377.682 148.54C375.776 151.165 372.962 154.266 374.412 157.567Z" fill="white"/>
<path d="M377.418 149.039L377.129 148.779L377.538 148.41L379.98 145.838L380.29 146.078L377.838 148.66L377.418 149.039Z" fill="white"/>
<path d="M351.038 147.476L350.776 147.76L353.229 149.604L353.491 149.321L351.038 147.476Z" fill="white"/>
<path d="M378.123 151.208L373.83 157.294L374.175 157.492L378.468 151.406L378.123 151.208Z" fill="white"/>
<path d="M351.489 151.207L351.144 151.405L355.436 157.492L355.781 157.294L351.489 151.207Z" fill="white"/>
<path d="M378.909 218.889V225.571L376.331 226.498C376.248 226.527 376.166 226.551 376.08 226.576L367.442 228.869C366.338 229.162 364.809 227.819 363.915 226.893C363.472 226.447 363.221 225.872 363.208 225.273C363.194 224.674 363.419 224.09 363.842 223.628C363.961 223.504 364.092 223.389 364.234 223.286C364.567 223.052 364.959 222.897 365.375 222.833L374.003 221.301C374.313 221.247 374.61 221.147 374.884 221.005L378.909 218.889Z" fill="white"/>
<path d="M382.645 195.053H381.168C381.168 176.2 376.866 163.061 372.673 163.061L372.304 161.729C376.064 161.729 378.461 167.197 379.809 171.784C381.638 178.003 382.645 186.267 382.645 195.053Z" fill="#110E38"/>
<path d="M348.669 190.387H347.191C347.191 173.121 351.523 162.395 357.901 162.395L357.532 163.728C353.12 163.728 348.669 171.971 348.669 190.387Z" fill="#110E38"/>
<path d="M381.906 198.719C383.946 198.719 385.599 197.227 385.599 195.386C385.599 193.546 383.946 192.054 381.906 192.054C379.867 192.054 378.213 193.546 378.213 195.386C378.213 197.227 379.867 198.719 381.906 198.719Z" fill="#110E38"/>
<path d="M342.76 198.385H341.283C341.283 193.608 344.265 189.721 347.93 189.721V191.054C345.079 191.054 342.76 194.343 342.76 198.385Z" fill="#110E38"/>
<path d="M354.578 198.385H353.1C353.1 194.343 350.781 191.054 347.93 191.054V189.721C351.596 189.721 354.578 193.608 354.578 198.385Z" fill="#110E38"/>
<path d="M353.839 200.052C354.655 200.052 355.316 199.455 355.316 198.719C355.316 197.983 354.655 197.386 353.839 197.386C353.023 197.386 352.362 197.983 352.362 198.719C352.362 199.455 353.023 200.052 353.839 200.052Z" fill="#110E38"/>
<path d="M342.021 200.052C342.837 200.052 343.498 199.455 343.498 198.719C343.498 197.983 342.837 197.386 342.021 197.386C341.205 197.386 340.544 197.983 340.544 198.719C340.544 199.455 341.205 200.052 342.021 200.052Z" fill="#110E38"/>
<path d="M163.999 153.922L138.055 157.887C137.414 157.986 136.756 157.866 136.207 157.552C135.658 157.238 135.257 156.751 135.083 156.185C133.209 150.081 129.29 142.117 133.095 138.12C133.289 136.438 134.194 134.888 135.622 133.793C137.05 132.699 138.891 132.143 140.762 132.242C145.396 125.696 153.116 126.679 158.334 130.767C163.585 132.402 165.564 135.307 164.872 139.249C167.14 141.04 168.33 143.059 168.581 145.274C168.699 146.506 168.526 147.748 168.071 148.915C167.616 150.082 166.89 151.149 165.942 152.043L163.999 153.922Z" fill="#2F2E41"/>
<path d="M159.966 172.353L139.853 171.285C141.824 167.203 142.612 163.272 141.825 159.542H156.811C156.777 162.406 158.356 167.36 159.966 172.353Z" fill="#9F616A"/>
<path d="M135.756 340.05L134.931 350.226C134.894 350.687 134.966 351.15 135.143 351.583C135.32 352.016 135.597 352.411 135.957 352.739C136.317 353.068 136.75 353.323 137.228 353.488C137.706 353.653 138.218 353.724 138.729 353.696L144.521 353.38C144.79 353.365 145.051 353.297 145.287 353.181C145.523 353.065 145.728 352.903 145.887 352.707C146.046 352.512 146.155 352.287 146.207 352.049C146.259 351.811 146.252 351.565 146.187 351.33L142.971 339.725L135.756 340.05Z" fill="#E6E6E6"/>
<path d="M154.509 339.725L151.293 351.33C151.228 351.565 151.221 351.811 151.273 352.049C151.325 352.287 151.434 352.512 151.593 352.707C151.752 352.903 151.957 353.065 152.193 353.181C152.429 353.297 152.69 353.365 152.959 353.38L158.751 353.696C159.262 353.724 159.774 353.653 160.252 353.488C160.73 353.323 161.163 353.068 161.523 352.739C161.883 352.411 162.16 352.016 162.337 351.583C162.514 351.15 162.586 350.687 162.549 350.226L161.724 340.05L154.509 339.725Z" fill="#E6E6E6"/>
<path d="M162.098 341.463L154.281 340.755L146.499 265.691L143.558 340.513L135.878 340.265L122.934 236.64H172.387L162.098 341.463Z" fill="white"/>
<path d="M149.713 163.862C157.962 163.862 164.649 157.828 164.649 150.384C164.649 142.941 157.962 136.907 149.713 136.907C141.464 136.907 134.778 142.941 134.778 150.384C134.778 157.828 141.464 163.862 149.713 163.862Z" fill="#9F616A"/>
<path d="M166.546 143.946C160.484 142.994 154.525 142.863 148.731 144.071C145.04 145.161 140.608 145.061 135.679 144.163V135.074L162.289 135.507L166.546 143.946Z" fill="#2F2E41"/>
<path d="M159.653 161.198C153.119 163.651 146.268 163.551 139.137 161.198C141.212 158.002 138.11 155.499 136.518 152.273L163.145 151.559C161.109 154.361 158.104 157.673 159.653 161.198Z" fill="white"/>
<path d="M134.684 150.432L134.422 150.716L137.041 152.685L137.303 152.402L134.684 150.432Z" fill="white"/>
<path d="M163.628 154.414L159.043 160.913L159.388 161.111L163.972 154.613L163.628 154.414Z" fill="white"/>
<path d="M135.162 154.414L134.817 154.612L139.4 161.112L139.745 160.914L135.162 154.414Z" fill="white"/>
<path d="M121.318 211.853L109.882 205.448L119.635 179.671C120.723 177.012 122.806 174.779 125.526 173.358L128.811 171.642L129.097 197.645L121.318 211.853Z" fill="white"/>
<path d="M170.752 224.371L169.06 211.294C168.969 204.391 170.271 197.718 173.374 191.569L174.951 172.353L157.599 165.947C157.546 166.266 157.501 166.585 157.45 166.904L149.318 170.573L141.387 168.947L141.431 166.659L125.656 173.064C130.873 194.949 128.028 217.674 119.057 244.518L139.838 249.645L140.011 240.641L158.532 239.447C158.722 242.368 158.876 245.238 158.965 248.044C169.415 251.516 169.774 251.458 179.296 246.487C175.504 239.293 172.502 231.807 170.752 224.371Z" fill="white"/>
<path d="M197.43 208.65L186.782 205.448L169.75 187.556L174.951 172.354L198.613 202.245L197.43 208.65Z" fill="white"/>
<path d="M164.06 222.501C164.234 223.191 164.704 223.79 165.368 224.168C166.031 224.545 166.833 224.67 167.598 224.515L176.636 222.668L175.33 217.462L166.291 219.309C165.526 219.465 164.861 219.889 164.443 220.488C164.024 221.087 163.887 221.811 164.06 222.501V222.501Z" fill="#E6E6E6"/>
<path d="M172.191 216.478L177.317 225.019C185.94 222.849 193.413 216.007 200.585 207.938L198.613 202.244L186.388 205.091L172.191 216.478Z" fill="white"/>
<path d="M105.347 189.689L115.189 191.275L137.684 220.138L125.734 217.601L105.347 189.689Z" fill="#E6E6E6"/>
<path d="M103.601 189.336C103.451 189.338 103.304 189.376 103.176 189.447C103.048 189.518 102.944 189.618 102.874 189.738C102.804 189.857 102.77 189.992 102.777 190.127C102.784 190.262 102.832 190.393 102.914 190.506L123.942 219.295C124.059 219.456 124.24 219.57 124.448 219.614L134.232 221.691C134.396 221.726 134.569 221.715 134.727 221.66C134.885 221.604 135.02 221.506 135.115 221.38C135.21 221.253 135.26 221.103 135.259 220.95C135.257 220.797 135.204 220.649 135.106 220.523L112.02 190.902C111.957 190.821 111.877 190.753 111.785 190.7C111.693 190.647 111.59 190.611 111.483 190.594L103.759 189.349C103.707 189.34 103.654 189.336 103.601 189.336Z" fill="#110E38"/>
<path d="M116.718 209.919L117.302 215.231L126.524 214.405C127.305 214.335 128.023 213.988 128.52 213.441C129.017 212.893 129.253 212.19 129.176 211.485C129.098 210.781 128.714 210.133 128.107 209.685C127.5 209.236 126.721 209.023 125.94 209.093L116.718 209.919Z" fill="#E6E6E6"/>
<path d="M108.699 209.304C108.712 211.115 109.519 212.848 110.942 214.125C112.365 215.402 114.29 216.12 116.297 216.122H117.814L118.917 207.821L109.777 204.852L108.699 209.304Z" fill="white"/>
<path d="M162.416 152.478L162.127 152.217L162.564 151.823L165.172 149.076L165.483 149.316L162.864 152.073L162.416 152.478Z" fill="white"/>
<path d="M214.578 352.894H300.422V258.937C300.422 253.962 294.991 249.914 288.316 249.914H226.683C220.008 249.914 214.578 253.962 214.578 258.937V352.894Z" fill="#E6E6E6"/>
<path d="M221.118 349.008H293.882V269.368C293.882 265.151 289.278 261.721 283.621 261.721H231.379C225.721 261.721 221.118 265.151 221.118 269.368V349.008Z" fill="white"/>
<path d="M213.929 242.602C211.807 242.602 210.081 243.888 210.081 245.47V253.748C210.081 255.33 211.807 256.617 213.929 256.617H301.071C303.193 256.617 304.919 255.33 304.919 253.748V245.47C304.919 243.888 303.193 242.602 301.071 242.602H213.929Z" fill="#110E38"/>
<path d="M231.82 338.796C230.824 338.799 229.87 339.157 229.165 339.792C228.461 340.428 228.064 341.289 228.061 342.188C228.064 343.087 228.461 343.948 229.165 344.584C229.87 345.22 230.824 345.578 231.82 345.581H238.857V338.796H231.82Z" fill="#110E38"/>
<path d="M245.316 338.796H238.472V345.581H245.316C246.312 345.578 247.267 345.22 247.971 344.584C248.676 343.949 249.073 343.087 249.076 342.188C249.073 341.289 248.676 340.428 247.971 339.792C247.267 339.157 246.312 338.799 245.316 338.796Z" fill="white"/>
<path opacity="0.2" d="M247.769 339.627C248.362 340.24 248.689 341.027 248.69 341.841C248.687 342.739 248.29 343.601 247.586 344.236C246.881 344.872 245.927 345.23 244.93 345.233H238.472V345.581H245.316C246.312 345.578 247.267 345.22 247.971 344.584C248.676 343.949 249.073 343.087 249.076 342.189C249.075 341.702 248.957 341.221 248.732 340.779C248.507 340.337 248.178 339.944 247.769 339.627Z" fill="#0F0B0B"/>
<path d="M263.575 287.698C262.89 287.046 261.946 286.665 260.95 286.638C259.954 286.612 258.988 286.942 258.261 287.556C257.538 288.175 257.116 289.026 257.086 289.925C257.057 290.824 257.423 291.696 258.104 292.352L262.931 296.972L268.402 292.319L263.575 287.698Z" fill="#110E38"/>
<path d="M272.832 296.559L268.138 292.065L262.666 296.719L267.361 301.213C268.046 301.866 268.99 302.247 269.986 302.273C270.981 302.3 271.948 301.969 272.675 301.355C273.398 300.736 273.82 299.885 273.85 298.986C273.879 298.088 273.513 297.215 272.832 296.559Z" fill="white"/>
<path opacity="0.2" d="M273.845 298.74C273.757 299.55 273.347 300.304 272.691 300.863C271.964 301.477 270.998 301.808 270.002 301.781C269.006 301.755 268.062 301.373 267.377 300.721L262.947 296.48L262.666 296.719L267.361 301.213C268.046 301.865 268.99 302.246 269.986 302.273C270.981 302.299 271.948 301.969 272.675 301.355C273.067 301.02 273.374 300.614 273.576 300.162C273.778 299.711 273.87 299.226 273.845 298.74Z" fill="#0F0B0B"/>
<path d="M243.545 298.395C242.859 297.743 241.916 297.362 240.92 297.335C239.924 297.309 238.957 297.639 238.23 298.254C237.507 298.872 237.085 299.724 237.056 300.622C237.026 301.521 237.392 302.393 238.073 303.049L242.9 307.67L248.372 303.016L243.545 298.395Z" fill="#110E38"/>
<path d="M252.802 307.257L248.107 302.763L242.636 307.417L247.33 311.911C248.016 312.563 248.959 312.944 249.955 312.97C250.951 312.997 251.918 312.667 252.645 312.052C253.368 311.434 253.79 310.582 253.819 309.684C253.849 308.785 253.483 307.913 252.802 307.257Z" fill="white"/>
<path opacity="0.2" d="M253.814 309.437C253.726 310.247 253.317 311.001 252.661 311.56C251.934 312.175 250.967 312.505 249.971 312.478C248.976 312.452 248.032 312.071 247.346 311.418L242.916 307.178L242.636 307.416L247.33 311.91C248.016 312.563 248.959 312.944 249.955 312.97C250.951 312.997 251.918 312.667 252.645 312.052C253.036 311.718 253.344 311.311 253.546 310.86C253.747 310.408 253.839 309.923 253.814 309.437Z" fill="#0F0B0B"/>
<path d="M263.575 308.355C262.89 307.703 261.946 307.322 260.95 307.295C259.954 307.269 258.988 307.599 258.261 308.214C257.538 308.832 257.116 309.684 257.086 310.582C257.057 311.481 257.423 312.353 258.104 313.009L262.931 317.63L268.402 312.976L263.575 308.355Z" fill="#110E38"/>
<path d="M272.832 317.217L268.138 312.723L262.666 317.377L267.361 321.87C268.046 322.523 268.99 322.904 269.986 322.93C270.981 322.957 271.948 322.627 272.675 322.012C273.398 321.394 273.82 320.542 273.85 319.644C273.879 318.745 273.513 317.873 272.832 317.217Z" fill="white"/>
<path opacity="0.2" d="M273.845 319.397C273.757 320.207 273.347 320.961 272.691 321.52C271.964 322.135 270.998 322.465 270.002 322.438C269.006 322.412 268.062 322.031 267.377 321.378L262.947 317.138L262.666 317.376L267.361 321.87C268.046 322.523 268.99 322.904 269.986 322.93C270.981 322.957 271.948 322.627 272.675 322.012C273.067 321.678 273.374 321.271 273.576 320.82C273.778 320.368 273.87 319.883 273.845 319.397Z" fill="#0F0B0B"/>
<path d="M275.795 329.553C276.509 328.927 276.92 328.07 276.937 327.172C276.955 326.273 276.577 325.404 275.887 324.756C275.193 324.111 274.244 323.741 273.248 323.725C272.252 323.71 271.29 324.05 270.571 324.673L265.51 329.084L270.733 333.964L275.795 329.553Z" fill="#110E38"/>
<path d="M266.088 338.012L271.01 333.722L265.787 328.842L260.864 333.132C260.15 333.759 259.739 334.615 259.722 335.514C259.704 336.412 260.082 337.281 260.772 337.929C261.466 338.574 262.415 338.944 263.411 338.96C264.407 338.976 265.369 338.635 266.088 338.012Z" fill="white"/>
<path opacity="0.2" d="M263.683 338.953C262.785 338.883 261.944 338.523 261.317 337.938C260.627 337.289 260.249 336.421 260.267 335.522C260.284 334.623 260.695 333.767 261.409 333.141L266.055 329.092L265.787 328.842L260.864 333.132C260.15 333.759 259.739 334.615 259.722 335.514C259.704 336.412 260.082 337.281 260.772 337.929C261.147 338.279 261.601 338.551 262.104 338.727C262.606 338.904 263.145 338.981 263.683 338.953Z" fill="#0F0B0B"/>
<path d="M248.815 318.856C249.53 318.229 249.94 317.373 249.958 316.474C249.975 315.576 249.597 314.707 248.907 314.059C248.213 313.414 247.265 313.043 246.269 313.028C245.272 313.012 244.31 313.353 243.592 313.976L238.53 318.387L243.754 323.267L248.815 318.856Z" fill="#110E38"/>
<path d="M239.108 327.316L244.031 323.026L238.807 318.146L233.884 322.436C233.17 323.062 232.759 323.918 232.742 324.817C232.724 325.716 233.102 326.584 233.792 327.233C234.486 327.878 235.435 328.248 236.431 328.264C237.427 328.279 238.389 327.939 239.108 327.316Z" fill="white"/>
<path opacity="0.2" d="M236.704 328.256C235.805 328.187 234.965 327.826 234.337 327.241C233.647 326.593 233.27 325.725 233.287 324.826C233.304 323.927 233.715 323.071 234.43 322.445L239.075 318.396L238.807 318.146L233.884 322.436C233.17 323.062 232.759 323.918 232.742 324.817C232.724 325.716 233.102 326.584 233.792 327.233C234.167 327.582 234.622 327.855 235.124 328.031C235.627 328.208 236.165 328.285 236.704 328.256Z" fill="#0F0B0B"/>
<path d="M287.241 305.945C287.955 305.319 288.366 304.463 288.383 303.564C288.4 302.666 288.023 301.797 287.333 301.149C286.639 300.504 285.69 300.133 284.694 300.118C283.698 300.102 282.736 300.443 282.017 301.065L276.956 305.477L282.179 310.357L287.241 305.945Z" fill="#110E38"/>
<path d="M277.534 314.405L282.456 310.114L277.233 305.234L272.31 309.525C271.596 310.151 271.185 311.007 271.168 311.906C271.15 312.805 271.528 313.673 272.218 314.322C272.912 314.966 273.861 315.337 274.857 315.353C275.853 315.368 276.815 315.028 277.534 314.405Z" fill="white"/>
<path opacity="0.2" d="M275.13 315.345C274.231 315.276 273.39 314.915 272.763 314.33C272.073 313.682 271.695 312.813 271.713 311.915C271.73 311.016 272.141 310.16 272.855 309.533L277.501 305.485L277.233 305.234L272.31 309.525C271.596 310.151 271.185 311.007 271.168 311.906C271.15 312.805 271.528 313.673 272.218 314.322C272.593 314.671 273.047 314.943 273.55 315.12C274.052 315.297 274.591 315.374 275.13 315.345Z" fill="#0F0B0B"/>
<path d="M278.7 332.7C278.015 332.048 277.071 331.667 276.075 331.64C275.079 331.614 274.113 331.944 273.386 332.558C272.663 333.177 272.241 334.028 272.211 334.927C272.182 335.825 272.548 336.698 273.229 337.354L278.056 341.974L283.527 337.321L278.7 332.7Z" fill="#110E38"/>
<path d="M287.957 341.561L283.262 337.067L277.791 341.721L282.486 346.215C283.171 346.867 284.115 347.249 285.11 347.275C286.106 347.302 287.073 346.971 287.8 346.357C288.523 345.738 288.945 344.887 288.975 343.988C289.004 343.09 288.638 342.217 287.957 341.561Z" fill="white"/>
<path opacity="0.2" d="M288.97 343.742C288.882 344.552 288.472 345.306 287.816 345.865C287.089 346.479 286.122 346.81 285.127 346.783C284.131 346.756 283.187 346.375 282.502 345.723L278.072 341.482L277.791 341.721L282.486 346.215C283.171 346.867 284.115 347.248 285.11 347.275C286.106 347.301 287.073 346.971 287.8 346.357C288.192 346.022 288.499 345.616 288.701 345.164C288.903 344.713 288.994 344.228 288.97 343.742Z" fill="#0F0B0B"/>
<path d="M252.129 332.332C251.444 331.68 250.5 331.299 249.504 331.272C248.509 331.245 247.542 331.576 246.815 332.19C246.092 332.809 245.67 333.66 245.64 334.559C245.611 335.457 245.977 336.33 246.658 336.986L251.485 341.606L256.956 336.952L252.129 332.332Z" fill="#110E38"/>
<path d="M261.386 341.193L256.691 336.699L251.22 341.353L255.915 345.847C256.6 346.499 257.544 346.88 258.54 346.907C259.535 346.933 260.502 346.603 261.229 345.989C261.952 345.37 262.374 344.519 262.404 343.62C262.433 342.722 262.067 341.849 261.386 341.193Z" fill="white"/>
<path opacity="0.2" d="M262.399 343.374C262.311 344.184 261.901 344.938 261.245 345.497C260.518 346.111 259.551 346.441 258.556 346.415C257.56 346.388 256.616 346.007 255.931 345.355L251.501 341.114L251.22 341.353L255.915 345.847C256.6 346.499 257.544 346.88 258.54 346.907C259.535 346.933 260.502 346.603 261.229 345.988C261.621 345.654 261.928 345.247 262.13 344.796C262.332 344.345 262.424 343.86 262.399 343.374Z" fill="#0F0B0B"/>
<path d="M259.608 320.161C259.609 321.289 259.177 322.382 258.387 323.256C257.596 324.129 256.496 324.73 255.271 324.955C254.555 325.086 253.818 325.086 253.102 324.955C251.878 324.73 250.777 324.129 249.987 323.255C249.197 322.382 248.765 321.289 248.765 320.161C248.765 319.033 249.197 317.94 249.987 317.066C250.777 316.193 251.878 315.592 253.102 315.366C253.818 315.236 254.555 315.236 255.271 315.366C256.496 315.592 257.596 316.192 258.387 317.066C259.177 317.94 259.609 319.033 259.608 320.161Z" fill="white"/>
<path opacity="0.2" d="M255.271 315.366V324.955C254.555 325.086 253.818 325.086 253.102 324.955V315.366C253.818 315.236 254.555 315.236 255.271 315.366Z" fill="#0F0B0B"/>
<path d="M262.061 300.611C262.062 301.739 261.63 302.832 260.84 303.706C260.049 304.58 258.949 305.18 257.724 305.406C257.008 305.536 256.271 305.536 255.555 305.406C254.331 305.18 253.23 304.579 252.44 303.706C251.649 302.832 251.218 301.739 251.218 300.611C251.218 299.483 251.649 298.39 252.44 297.517C253.23 296.643 254.331 296.042 255.555 295.817C256.271 295.686 257.008 295.686 257.724 295.817C258.949 296.042 260.049 296.643 260.84 297.516C261.63 298.39 262.062 299.483 262.061 300.611Z" fill="white"/>
<path opacity="0.2" d="M257.724 295.817V305.406C257.008 305.536 256.271 305.536 255.555 305.406V295.817C256.271 295.686 257.008 295.686 257.724 295.817Z" fill="#0F0B0B"/>
<path d="M262.061 328.645C262.062 329.773 261.63 330.866 260.84 331.74C260.049 332.614 258.949 333.214 257.724 333.44C257.008 333.57 256.271 333.57 255.555 333.44C254.331 333.214 253.23 332.614 252.44 331.74C251.649 330.866 251.218 329.773 251.218 328.645C251.218 327.517 251.649 326.424 252.44 325.551C253.23 324.677 254.331 324.077 255.555 323.851C256.271 323.72 257.008 323.72 257.724 323.851C258.949 324.076 260.049 324.677 260.84 325.55C261.63 326.424 262.062 327.517 262.061 328.645Z" fill="white"/>
<path opacity="0.2" d="M257.724 323.851V333.44C257.008 333.57 256.271 333.57 255.555 333.44V323.851C256.271 323.72 257.008 323.72 257.724 323.851Z" fill="#0F0B0B"/>
<path d="M275.551 342.294C275.551 343.422 275.12 344.515 274.329 345.389C273.539 346.262 272.438 346.863 271.214 347.088C270.498 347.219 269.761 347.219 269.045 347.088C267.82 346.862 266.72 346.262 265.93 345.388C265.139 344.515 264.708 343.421 264.708 342.294C264.708 341.166 265.139 340.073 265.93 339.199C266.72 338.325 267.82 337.725 269.045 337.499C269.761 337.369 270.498 337.369 271.214 337.499C272.438 337.725 273.539 338.325 274.329 339.199C275.12 340.073 275.551 341.166 275.551 342.294Z" fill="white"/>
<path opacity="0.2" d="M271.214 337.499V347.088C270.498 347.219 269.761 347.219 269.045 347.088V337.499C269.761 337.369 270.498 337.369 271.214 337.499Z" fill="#0F0B0B"/>
<path d="M287.468 317.182C288.368 317.965 288.941 319.004 289.09 320.124C289.238 321.243 288.953 322.375 288.284 323.327C287.891 323.883 287.379 324.362 286.779 324.736C285.749 325.375 284.506 325.674 283.26 325.581C282.015 325.488 280.843 325.01 279.943 324.227C279.043 323.444 278.47 322.405 278.322 321.286C278.173 320.166 278.458 319.034 279.127 318.082C279.52 317.526 280.032 317.047 280.632 316.673C281.662 316.034 282.905 315.735 284.151 315.828C285.396 315.921 286.568 316.399 287.468 317.182Z" fill="white"/>
<path opacity="0.2" d="M280.632 316.673L288.283 323.327C287.891 323.883 287.379 324.362 286.778 324.736L279.127 318.082C279.52 317.526 280.031 317.047 280.632 316.673Z" fill="#0F0B0B"/>
<path d="M289.103 327.879C290.003 328.662 290.576 329.701 290.724 330.821C290.873 331.941 290.588 333.072 289.918 334.025C289.526 334.58 289.014 335.059 288.413 335.434C287.383 336.073 286.14 336.371 284.895 336.278C283.649 336.185 282.477 335.707 281.578 334.924C280.678 334.142 280.105 333.103 279.956 331.983C279.808 330.863 280.092 329.731 280.762 328.779C281.155 328.224 281.666 327.745 282.267 327.37C283.297 326.731 284.54 326.433 285.786 326.525C287.031 326.618 288.203 327.097 289.103 327.879Z" fill="white"/>
<path opacity="0.2" d="M282.267 327.37L289.918 334.025C289.526 334.58 289.014 335.059 288.413 335.434L280.762 328.779C281.155 328.224 281.667 327.745 282.267 327.37Z" fill="#0F0B0B"/>
<path d="M240.458 330.461C241.358 331.244 241.931 332.283 242.079 333.403C242.228 334.523 241.943 335.654 241.273 336.607C240.881 337.162 240.369 337.641 239.768 338.016C238.738 338.655 237.495 338.953 236.25 338.86C235.004 338.767 233.832 338.289 232.933 337.506C232.033 336.724 231.46 335.685 231.311 334.565C231.163 333.445 231.447 332.313 232.117 331.361C232.51 330.806 233.021 330.327 233.622 329.952C234.652 329.313 235.895 329.015 237.14 329.107C238.386 329.2 239.558 329.679 240.458 330.461Z" fill="white"/>
<path opacity="0.2" d="M233.622 329.952L241.273 336.607C240.881 337.162 240.369 337.641 239.768 338.016L232.117 331.361C232.51 330.806 233.021 330.327 233.622 329.952Z" fill="#0F0B0B"/>
<path opacity="0.2" d="M222.958 242.602H220.914V256.25H222.958V242.602Z" fill="#0F0B0B"/>
<path opacity="0.2" d="M234.812 242.602H232.769V256.25H234.812V242.602Z" fill="#0F0B0B"/>
<path opacity="0.2" d="M246.667 242.602H244.623V256.25H246.667V242.602Z" fill="#0F0B0B"/>
<path opacity="0.2" d="M258.522 242.602H256.478V256.25H258.522V242.602Z" fill="#0F0B0B"/>
<path opacity="0.2" d="M270.377 242.602H268.333V256.25H270.377V242.602Z" fill="#0F0B0B"/>
<path opacity="0.2" d="M282.231 242.602H280.188V256.25H282.231V242.602Z" fill="#0F0B0B"/>
<path opacity="0.2" d="M294.086 242.602H292.042V256.25H294.086V242.602Z" fill="#0F0B0B"/>
</svg>
